<?xml version="1.0" encoding="UTF-8"?>
<svg version="1.1" xmlns="http://www.w3.org/2000/svg" width="500" height="500">
<path d="M0 0 C1.09504852 -0.01142029 1.09504852 -0.01142029 2.21221924 -0.02307129 C3.7553771 -0.03385771 5.29860789 -0.03673128 6.84179688 -0.03222656 C9.18225864 -0.03125863 11.51939014 -0.07279487 13.859375 -0.1171875 C21.71394406 -0.18022468 28.42034941 -0.20718295 34.453125 5.46875 C34.97374512 5.92435303 35.49436523 6.37995605 36.03076172 6.84936523 C45.42139371 16.29778117 49.18345189 33.46686052 53.765625 45.71875 C54.71265359 48.24367798 55.66059923 50.76825645 56.60966492 53.29241943 C57.19419677 54.84777985 57.77743283 56.40362802 58.35920715 57.96002197 C59.7749683 61.77028587 59.7749683 61.77028587 61.453125 65.46875 C63.22435954 63.69751546 62.76373788 61.10379177 62.90209961 58.69555664 C62.9756517 57.46080093 63.0492038 56.22604523 63.12498474 54.95387268 C63.16244749 54.28995577 63.19991024 53.62603886 63.23850822 52.94200325 C63.35596566 50.87014119 63.47992922 48.79876555 63.60585022 46.72740173 C63.96296059 40.83681196 64.30978267 34.94564811 64.64819336 29.05395508 C64.85544298 25.45375121 65.07170767 21.85418117 65.29358101 18.25485039 C65.3764166 16.88070685 65.45571327 15.50634534 65.53144646 14.13179207 C65.63743063 12.2111556 65.75579492 10.29121429 65.87475586 8.37133789 C65.938358 7.27737198 66.00196014 6.18340607 66.06748962 5.05628967 C66.453125 2.46875 66.453125 2.46875 68.453125 0.46875 C71.13096389 0.24443434 73.70241102 0.14061494 76.3828125 0.1328125 C77.16955353 0.1261557 77.95629456 0.1194989 78.76687622 0.11264038 C80.43293924 0.10250701 82.09904291 0.09782357 83.76513672 0.09814453 C86.31155602 0.09377841 88.85623217 0.05748877 91.40234375 0.01953125 C93.0208274 0.01366174 94.6393193 0.00969324 96.2578125 0.0078125 C97.0183493 -0.00655853 97.77888611 -0.02092957 98.56246948 -0.03573608 C101.90903853 -0.0068949 104.10980986 0.25521662 106.97509766 2.03735352 C109.00530981 5.37710951 108.70435481 8.09408932 108.296875 11.83203125 C108.16769128 13.3705822 108.03879947 14.90915767 107.91015625 16.44775391 C107.8342627 17.26455627 107.75836914 18.08135864 107.68017578 18.9229126 C107.28967808 23.30142054 107.02087322 27.68790116 106.734375 32.07421875 C106.60623941 33.96128222 106.47781531 35.84832611 106.34912109 37.73535156 C105.26171606 53.88674297 104.23030994 70.03391585 103.828125 86.21875 C103.80150787 87.27955276 103.80150787 87.27955276 103.77435303 88.36178589 C103.53061587 98.59375753 103.42446741 108.82725779 103.3263855 119.0614624 C103.27439061 124.45215949 103.2133956 129.8427504 103.15144539 135.23334122 C103.09945299 139.87109367 103.06233829 144.50867894 103.036026 149.14664459 C103.01661901 152.05799845 102.98502703 154.96913221 102.95037079 157.88034058 C102.93664935 159.2554403 102.92817916 160.63060305 102.92511749 162.00576782 C102.92022854 163.9020411 102.89545413 165.79823222 102.86962891 167.69433594 C102.86154205 168.76552673 102.8534552 169.83671753 102.84512329 170.94036865 C102.65108414 172.19191742 102.65108414 172.19191742 102.453125 173.46875 C98.64743184 176.00587877 95.41316095 175.89066753 90.98828125 176.0234375 C90.15856308 176.05229034 89.32884491 176.08114319 88.47398376 176.11087036 C86.71987551 176.16790498 84.96558966 176.21968452 83.21118164 176.26660156 C80.52822367 176.34338942 77.84777825 176.45220626 75.16601562 176.5625 C73.46099588 176.61395151 71.75591724 176.66349423 70.05078125 176.7109375 C68.84906029 176.76530472 68.84906029 176.76530472 67.62306213 176.82077026 C62.01280394 176.92439289 62.01280394 176.92439289 59.34291077 174.75079346 C57.37512523 172.37456003 56.38893741 170.44452988 55.32177734 167.56201172 C54.77002335 166.0966951 54.77002335 166.0966951 54.2071228 164.60177612 C53.8216629 163.54467438 53.436203 162.48757263 53.0390625 161.3984375 C52.41724594 159.73483688 52.41724594 159.73483688 51.78286743 158.03762817 C50.45430195 154.47674146 49.14080099 150.91052095 47.828125 147.34375 C46.53912959 143.87177065 45.24703197 140.40095712 43.95465088 136.93023682 C43.09435595 134.61763223 42.23607848 132.30427615 41.37982178 129.99017334 C39.15491023 123.98677271 36.89498683 117.99966867 34.57519531 112.03222656 C34.1108609 110.8372757 33.64652649 109.64232483 33.16812134 108.41116333 C32.27697078 106.12543206 31.38146122 103.84139421 30.48104858 101.55929565 C30.08334259 100.53957672 29.6856366 99.51985779 29.27587891 98.46923828 C28.92296783 97.57310822 28.57005676 96.67697815 28.20645142 95.75369263 C27.453125 93.46875 27.453125 93.46875 27.453125 90.46875 C26.463125 89.97375 26.463125 89.97375 25.453125 89.46875 C24.48005344 105.28942919 24.15276278 121.09679459 23.90087891 136.94311523 C23.55235787 158.38035629 23.55235787 158.38035629 23.046875 167.89453125 C22.98177734 169.13243408 22.91667969 170.37033691 22.84960938 171.64575195 C22.453125 174.46875 22.453125 174.46875 20.453125 176.46875 C17.40335445 176.70572988 14.44755459 176.82117699 11.39453125 176.83984375 C10.49443832 176.84887222 9.5943454 176.8579007 8.66697693 176.86720276 C6.76133562 176.88172427 4.85564424 176.8905967 2.94995117 176.89428711 C0.03023581 176.90619043 -2.88737126 176.95536151 -5.80664062 177.00585938 C-7.65623966 177.01532242 -9.5058517 177.02255802 -11.35546875 177.02734375 C-12.23053574 177.04687607 -13.10560272 177.06640839 -14.00718689 177.08653259 C-15.22844017 177.077416 -15.22844017 177.077416 -16.47436523 177.06811523 C-17.19003159 177.07318588 -17.90569794 177.07825653 -18.64305115 177.08348083 C-20.546875 176.46875 -20.546875 176.46875 -22.30384827 174.41490173 C-23.85955135 170.72766217 -23.77903415 167.63533517 -23.5078125 163.73095703 C-23.46740939 162.96213479 -23.42700628 162.19331255 -23.38537884 161.40119267 C-23.24668216 158.84182204 -23.08446962 156.28451766 -22.921875 153.7265625 C-22.81788706 151.90903324 -22.71519773 150.09142928 -22.61372375 148.27375793 C-22.3364363 143.39070972 -22.03774203 138.509192 -21.73398209 133.62772751 C-21.48465445 129.58483172 -21.24695434 125.5412831 -21.00877476 121.49771786 C-19.52943795 96.45006784 -17.85158012 71.41842373 -15.859375 46.40625 C-15.7574585 45.12502258 -15.65554199 43.84379517 -15.55053711 42.52374268 C-15.00721094 35.77086493 -14.43561336 29.02162235 -13.80767822 22.27606201 C-13.63905486 20.46098324 -13.47526925 18.64544567 -13.31732178 16.82940674 C-13.11484208 14.54141448 -12.88874442 12.25735484 -12.65234375 9.97265625 C-12.5339917 8.76552979 -12.41563965 7.55840332 -12.29370117 6.31469727 C-11.546875 3.46875 -11.546875 3.46875 -9.94946289 1.59155273 C-6.65280021 0.05092153 -3.57050757 0.00103036 0 0 Z M58.453125 127.46875 C59.453125 129.46875 59.453125 129.46875 59.453125 129.46875 Z " fill="#FEFEFD" transform="translate(320.546875,176.53125)"/>
<path d="M0 0 C0.8306749 -0.0004985 1.66134979 -0.00099701 2.51719666 -0.00151062 C4.26970823 0.00082586 6.02222341 0.01052926 7.7746582 0.02709961 C10.45880062 0.05072805 13.14195162 0.04765304 15.82617188 0.04101562 C17.52995384 0.04659149 19.23373163 0.05370079 20.9375 0.0625 C21.74067154 0.06158859 22.54384308 0.06067719 23.37135315 0.05973816 C27.22923691 0.10892339 29.11902278 0.1744006 32.40234375 2.36328125 C33.47046247 6.52179716 33.44550272 10.35003328 33.16455078 14.61108398 C33.04915451 16.44237099 33.04915451 16.44237099 32.931427 18.31065369 C32.79714798 20.28383324 32.79714798 20.28383324 32.66015625 22.296875 C32.57070456 23.69372436 32.48200573 25.0906221 32.39401245 26.48756409 C32.16005488 30.17989943 31.91876783 33.8717129 31.67504883 37.56341553 C29.78691541 66.16395555 28.45980454 94.71130047 28.19140625 123.37890625 C28.1841515 124.13030443 28.17689674 124.88170261 28.16942215 125.65587044 C28.10311015 132.55713766 28.03759163 139.45836576 28.00097656 146.35986328 C27.98009864 150.20182698 27.94495308 154.04342832 27.90021896 157.88518524 C27.88611686 159.3284459 27.87734967 160.77176948 27.87416458 162.21509552 C27.86928161 164.20369786 27.84456013 166.19222196 27.81884766 168.18066406 C27.80671738 169.86908417 27.80671738 169.86908417 27.79434204 171.59161377 C27.40234375 174.36328125 27.40234375 174.36328125 26.1413269 176.22444153 C23.99217409 177.63189656 22.72261438 177.74884329 20.16210938 177.76733398 C18.88563538 177.78636024 18.88563538 177.78636024 17.58337402 177.80577087 C16.66769653 177.80283524 15.75201904 177.7998996 14.80859375 177.796875 C13.86552368 177.80211685 12.92245361 177.8073587 11.95080566 177.8127594 C9.95695989 177.81918271 7.96307623 177.81783861 5.96923828 177.80932617 C2.91370418 177.8008129 -0.13996304 177.82957848 -3.1953125 177.86132812 C-5.13150986 177.86294009 -7.06771053 177.8623627 -9.00390625 177.859375 C-9.91958374 177.87060898 -10.83526123 177.88184296 -11.77868652 177.89341736 C-18.01805143 177.82463667 -18.01805143 177.82463667 -20.68823242 175.69921875 C-21.82788638 172.7719143 -21.877502 170.63503068 -21.7421875 167.4921875 C-21.69763428 166.294729 -21.65308105 165.09727051 -21.60717773 163.86352539 C-21.54216064 162.56406982 -21.47714355 161.26461426 -21.41015625 159.92578125 C-21.35310935 158.5696275 -21.2972244 157.21342443 -21.24243164 155.85717773 C-21.05347576 151.35784274 -20.82778192 146.8606727 -20.59765625 142.36328125 C-20.555802 141.53441406 -20.51394775 140.70554687 -20.4708252 139.8515625 C-19.88923556 128.35301659 -19.26138948 116.85736307 -18.59765625 105.36328125 C-24.72242783 106.54851754 -30.7996921 107.83336147 -36.84765625 109.36328125 C-37.51539062 109.52828125 -38.183125 109.69328125 -38.87109375 109.86328125 C-42.8483384 110.86149167 -46.71565497 112.04781312 -50.59765625 113.36328125 C-50.62049179 114.14810883 -50.64332733 114.9329364 -50.66685486 115.74154663 C-50.8826187 123.12857618 -51.10285429 130.51545229 -51.32814693 137.90219688 C-51.44382046 141.70002893 -51.55774839 145.4978968 -51.66772461 149.29589844 C-51.77387036 152.95941737 -51.88455225 156.62277341 -51.99841499 160.28606033 C-52.04110734 161.68548345 -52.08214958 163.08495789 -52.12153435 164.484478 C-52.17686689 166.44078853 -52.23854806 168.39691642 -52.30053711 170.35302734 C-52.33384628 171.46777435 -52.36715546 172.58252136 -52.401474 173.73104858 C-52.59765625 176.36328125 -52.59765625 176.36328125 -53.59765625 178.36328125 C-56.378276 179.2901545 -58.01817484 179.48521521 -60.88549805 179.47680664 C-61.74616379 179.47673111 -62.60682953 179.47665558 -63.49357605 179.47657776 C-64.4186647 179.47141647 -65.34375336 179.46625519 -66.296875 179.4609375 C-67.24706009 179.45952255 -68.19724518 179.4581076 -69.17622375 179.45664978 C-72.21256654 179.45105 -75.24883573 179.43849757 -78.28515625 179.42578125 C-80.34309789 179.42076622 -82.40104069 179.41620332 -84.45898438 179.41210938 C-89.50523671 179.40108065 -94.551434 179.38381618 -99.59765625 179.36328125 C-102.70842552 173.88832733 -102.70842552 173.88832733 -102.21985435 171.57250118 C-102.01452898 170.8434586 -101.80920361 170.11441603 -101.59765625 169.36328125 C-101.38854272 167.16728283 -101.22179224 164.96713206 -101.07998657 162.76576233 C-101.03632977 162.10433698 -100.99267297 161.44291162 -100.94769323 160.76144308 C-100.80235501 158.54698158 -100.66220569 156.33222184 -100.52197266 154.11743164 C-100.41867021 152.52889257 -100.31500834 150.94037684 -100.21101379 149.35188293 C-99.98763942 145.93185549 -99.7663295 142.51170279 -99.54646683 139.09144783 C-99.19830602 133.68318709 -98.84256424 128.27544197 -98.48519897 122.86778259 C-97.46984194 107.49069814 -96.45878052 92.11335733 -95.46875 76.73461914 C-94.92186844 68.24054371 -94.36556943 59.74714098 -93.79861391 51.25438112 C-93.49902608 46.76048605 -93.20440777 42.26638445 -92.92143631 37.77140999 C-92.65530562 33.54436326 -92.37691668 29.31830393 -92.08910179 25.09267998 C-91.98571641 23.54218818 -91.88688081 21.99138526 -91.79294395 20.44029236 C-91.66397539 18.32176274 -91.51866998 16.20495816 -91.36929321 14.08778381 C-91.29223963 12.90294435 -91.21518604 11.71810488 -91.1357975 10.49736118 C-90.5535069 7.1061599 -89.69549959 5.07930946 -87.59765625 2.36328125 C-84.578125 1.65625 -84.578125 1.65625 -80.78515625 1.55078125 C-80.10171143 1.52781982 -79.4182666 1.5048584 -78.71411133 1.48120117 C-76.34174855 1.41332953 -73.9708504 1.38781274 -71.59765625 1.36328125 C-70.65535156 1.34426758 -69.71304688 1.32525391 -68.7421875 1.30566406 C-65.75648556 1.24614517 -62.7712868 1.20644471 -59.78515625 1.17578125 C-58.34402466 1.15584106 -58.34402466 1.15584106 -56.8737793 1.13549805 C-55.97183838 1.13461182 -55.06989746 1.13372559 -54.140625 1.1328125 C-52.93442505 1.12664917 -52.93442505 1.12664917 -51.70385742 1.12036133 C-49.59765625 1.36328125 -49.59765625 1.36328125 -46.59765625 3.36328125 C-45.44584239 7.05895578 -45.57586287 10.42379151 -45.85131836 14.25512695 C-45.9314769 15.41595291 -46.01163544 16.57677887 -46.09422302 17.77278137 C-46.23320763 19.63709053 -46.23320763 19.63709053 -46.375 21.5390625 C-46.51029869 23.4595063 -46.51029869 23.4595063 -46.64833069 25.41874695 C-46.88737398 28.81067644 -47.13445323 32.20197378 -47.38323975 35.59320068 C-47.63602273 39.05853141 -47.88116102 42.52440203 -48.12695312 45.99023438 C-48.60972874 52.78179627 -49.10100042 59.57272067 -49.59765625 66.36328125 C-47.99752328 66.53519374 -46.39702787 66.70373494 -44.79638672 66.87084961 C-43.90515106 66.96506699 -43.01391541 67.05928436 -42.09567261 67.15635681 C-39.23620366 67.39322236 -36.57046505 67.26008924 -33.72265625 66.92578125 C-27.66221729 66.31186665 -21.68278579 66.28584979 -15.59765625 66.36328125 C-15.6121582 65.49034424 -15.62666016 64.61740723 -15.64160156 63.71801758 C-15.74428131 52.19661694 -15.23126152 40.73950771 -14.53564453 29.24047852 C-14.40897583 27.09122328 -14.29098858 24.94144093 -14.18115234 22.79125977 C-14.02065533 19.65115233 -13.83555225 16.51338039 -13.64453125 13.375 C-13.59955505 12.4126091 -13.55457886 11.4502182 -13.50823975 10.45866394 C-13.44847961 9.56955826 -13.38871948 8.68045258 -13.32714844 7.7644043 C-13.28273621 6.98437546 -13.23832397 6.20434662 -13.19256592 5.40068054 C-11.41243038 -0.69578601 -5.26764147 -0.06055521 0 0 Z M-70.59765625 10.36328125 C-70.26765625 11.02328125 -69.93765625 11.68328125 -69.59765625 12.36328125 C-69.26765625 11.70328125 -68.93765625 11.04328125 -68.59765625 10.36328125 C-69.25765625 10.36328125 -69.91765625 10.36328125 -70.59765625 10.36328125 Z M-63.59765625 11.36328125 C-63.59765625 11.69328125 -63.59765625 12.02328125 -63.59765625 12.36328125 C-61.61765625 12.36328125 -59.63765625 12.36328125 -57.59765625 12.36328125 C-57.59765625 12.03328125 -57.59765625 11.70328125 -57.59765625 11.36328125 C-59.57765625 11.36328125 -61.55765625 11.36328125 -63.59765625 11.36328125 Z M-80.59765625 13.36328125 C-80.59765625 14.02328125 -80.59765625 14.68328125 -80.59765625 15.36328125 C-79.93765625 15.36328125 -79.27765625 15.36328125 -78.59765625 15.36328125 C-78.59765625 14.70328125 -78.59765625 14.04328125 -78.59765625 13.36328125 C-79.25765625 13.36328125 -79.91765625 13.36328125 -80.59765625 13.36328125 Z M-60.59765625 37.36328125 C-59.93765625 38.02328125 -59.27765625 38.68328125 -58.59765625 39.36328125 C-58.59765625 38.70328125 -58.59765625 38.04328125 -58.59765625 37.36328125 C-59.25765625 37.36328125 -59.91765625 37.36328125 -60.59765625 37.36328125 Z M-20.59765625 77.36328125 C-20.92765625 78.02328125 -21.25765625 78.68328125 -21.59765625 79.36328125 C-20.60765625 79.03328125 -19.61765625 78.70328125 -18.59765625 78.36328125 C-19.25765625 78.03328125 -19.91765625 77.70328125 -20.59765625 77.36328125 Z M-29.59765625 82.36328125 C-27.61765625 83.35328125 -27.61765625 83.35328125 -25.59765625 84.36328125 C-25.59765625 83.70328125 -25.59765625 83.04328125 -25.59765625 82.36328125 C-26.91765625 82.36328125 -28.23765625 82.36328125 -29.59765625 82.36328125 Z M-25.59765625 84.36328125 C-24.93765625 85.02328125 -24.27765625 85.68328125 -23.59765625 86.36328125 C-22.60765625 86.03328125 -21.61765625 85.70328125 -20.59765625 85.36328125 C-22.24765625 85.03328125 -23.89765625 84.70328125 -25.59765625 84.36328125 Z M-75.59765625 110.36328125 C-75.59765625 111.02328125 -75.59765625 111.68328125 -75.59765625 112.36328125 C-74.60765625 112.36328125 -73.61765625 112.36328125 -72.59765625 112.36328125 C-72.59765625 111.70328125 -72.59765625 111.04328125 -72.59765625 110.36328125 C-73.58765625 110.36328125 -74.57765625 110.36328125 -75.59765625 110.36328125 Z " fill="#FDFDFD" transform="translate(103.59765625,173.63671875)"/>
<path d="M0 0 C23.99385078 21.97277048 24.83403349 80.45035291 30.24902344 110.65869141 C31.29714708 116.5012014 32.36214324 122.34051362 33.43050385 128.17935181 C34.25646205 132.71063173 35.07004476 137.24406942 35.88020325 141.77819824 C36.26786539 143.93522467 36.66022091 146.09141322 37.05741882 148.2467041 C37.60679083 151.23389708 38.13854247 154.22371787 38.66601562 157.21484375 C38.8320932 158.09573166 38.99817078 158.97661957 39.16928101 159.88420105 C39.94215603 164.3811887 40.38876384 167.46617102 37.99609375 171.59375 C36.44040199 173.14944176 34.94684458 172.72859055 32.78344727 172.73901367 C31.88904434 172.74539352 30.99464142 172.75177338 30.07313538 172.75834656 C28.61380836 172.76001579 28.61380836 172.76001579 27.125 172.76171875 C26.13233627 172.76504715 25.13967255 172.76837555 24.1169281 172.77180481 C22.01277125 172.7768784 19.90860632 172.779213 17.80444336 172.77905273 C14.57587492 172.7812383 11.34764848 172.79938699 8.11914062 172.81835938 C6.07942826 172.82129332 4.03971426 172.82327811 2 172.82421875 C1.02913956 172.83140427 0.05827911 172.83858978 -0.94200134 172.84599304 C-1.83955643 172.84291641 -2.73711151 172.83983978 -3.66186523 172.83666992 C-4.45382797 172.83809494 -5.24579071 172.83951996 -6.06175232 172.84098816 C-8.00390625 172.59375 -8.00390625 172.59375 -10.00390625 170.59375 C-10.38829514 168.17273504 -10.6600319 165.83575673 -10.85546875 163.3984375 C-10.91922699 162.69099396 -10.98298523 161.98355042 -11.04867554 161.25466919 C-11.25052299 158.99334741 -11.43985112 156.73117368 -11.62890625 154.46875 C-11.76350026 152.93612545 -11.89890685 151.40357202 -12.03515625 149.87109375 C-12.36751003 146.11273979 -12.68863952 142.35357428 -13.00390625 138.59375 C-13.76944824 138.73997803 -14.53499023 138.88620605 -15.32373047 139.03686523 C-18.84128856 139.70613044 -22.3600716 140.36873082 -25.87890625 141.03125 C-27.08289063 141.26134766 -28.286875 141.49144531 -29.52734375 141.72851562 C-36.34198971 143.00626174 -43.08827083 144.06753864 -50.00390625 144.59375 C-50.38482422 146.511875 -50.38482422 146.511875 -50.7734375 148.46875 C-51.12075024 150.1771532 -51.46842587 151.88548266 -51.81640625 153.59375 C-51.98205078 154.43292969 -52.14769531 155.27210938 -52.31835938 156.13671875 C-53.42624966 161.52984504 -54.73460558 166.56356212 -57.00390625 171.59375 C-59.75435529 172.51056635 -61.24369907 172.70236832 -64.06054688 172.6472168 C-64.87148804 172.6335759 -65.6824292 172.619935 -66.51794434 172.60588074 C-67.38987427 172.58511978 -68.2618042 172.56435883 -69.16015625 172.54296875 C-70.05883423 172.5241011 -70.95751221 172.50523346 -71.88342285 172.48579407 C-73.78318545 172.44392878 -75.68288663 172.39919305 -77.58251953 172.35180664 C-80.49238993 172.28152814 -83.40227704 172.22722897 -86.3125 172.17382812 C-88.15757493 172.13118555 -90.0026283 172.08759752 -91.84765625 172.04296875 C-92.71958618 172.02828049 -93.59151611 172.01359222 -94.48986816 171.99845886 C-95.30080933 171.97536148 -96.11175049 171.9522641 -96.94726562 171.9284668 C-97.65991577 171.91212692 -98.37256592 171.89578705 -99.10681152 171.87895203 C-101.00390625 171.59375 -101.00390625 171.59375 -104.00390625 169.59375 C-104.45156276 164.11150576 -103.74362576 159.69186047 -102.203125 154.38671875 C-102.011241 153.71655731 -101.81935699 153.04639587 -101.62165833 152.35592651 C-100.98940499 150.16094864 -100.3411417 147.97111119 -99.69140625 145.78125 C-99.23787953 144.22790044 -98.78476206 142.67443133 -98.33203125 141.12084961 C-86.69234149 101.3761812 -73.06843807 62.77028493 -57.00390625 24.59375 C-56.72212524 23.92408203 -56.44034424 23.25441406 -56.15002441 22.56445312 C-54.49174729 18.63001616 -52.81729057 14.70285415 -51.12890625 10.78125 C-50.73058594 9.85143311 -50.33226562 8.92161621 -49.921875 7.96362305 C-49.55964844 7.13386963 -49.19742188 6.30411621 -48.82421875 5.44921875 C-48.51758301 4.74434326 -48.21094727 4.03946777 -47.89501953 3.31323242 C-47.00390625 1.59375 -47.00390625 1.59375 -45.00390625 -0.40625 C-41.58674329 -1.38626351 -38.0649591 -1.91183408 -34.56640625 -2.53125 C-33.61830078 -2.71300781 -32.67019531 -2.89476562 -31.69335938 -3.08203125 C-21.27988358 -4.96509349 -9.17089077 -6.43571282 0 0 Z M-5.00390625 20.59375 C-5.33390625 21.25375 -5.66390625 21.91375 -6.00390625 22.59375 C-5.01390625 22.26375 -4.02390625 21.93375 -3.00390625 21.59375 C-3.66390625 21.26375 -4.32390625 20.93375 -5.00390625 20.59375 Z M-29.00390625 54.59375 C-29.33390625 55.58375 -29.66390625 56.57375 -30.00390625 57.59375 C-29.01390625 57.26375 -28.02390625 56.93375 -27.00390625 56.59375 C-27.00390625 55.93375 -27.00390625 55.27375 -27.00390625 54.59375 C-27.66390625 54.59375 -28.32390625 54.59375 -29.00390625 54.59375 Z M-26.00390625 62.59375 C-25.34390625 63.25375 -24.68390625 63.91375 -24.00390625 64.59375 C-24.00390625 63.93375 -24.00390625 63.27375 -24.00390625 62.59375 C-24.66390625 62.59375 -25.32390625 62.59375 -26.00390625 62.59375 Z M-27.00390625 65.59375 C-28.35074508 69.96470768 -29.67897529 74.3411065 -31.00390625 78.71875 C-31.38546875 79.95625 -31.76703125 81.19375 -32.16015625 82.46875 C-32.52109375 83.66757812 -32.88203125 84.86640625 -33.25390625 86.1015625 C-33.5890625 87.20129395 -33.92421875 88.30102539 -34.26953125 89.43408203 C-35.00624313 92.60380448 -35.14055554 95.35259967 -35.00390625 98.59375 C-29.50373661 99.89642176 -24.53358566 99.30408431 -19.00390625 98.59375 C-19.54165343 88.09840856 -21.16016186 77.9256761 -23.00390625 67.59375 C-23.66390625 67.59375 -24.32390625 67.59375 -25.00390625 67.59375 C-25.00390625 66.93375 -25.00390625 66.27375 -25.00390625 65.59375 C-25.66390625 65.59375 -26.32390625 65.59375 -27.00390625 65.59375 Z M-35.00390625 67.59375 C-35.66390625 69.90375 -36.32390625 72.21375 -37.00390625 74.59375 C-36.34390625 74.26375 -35.68390625 73.93375 -35.00390625 73.59375 C-34.34618197 70.56440509 -34.34618197 70.56440509 -34.00390625 67.59375 C-34.33390625 67.59375 -34.66390625 67.59375 -35.00390625 67.59375 Z M-38.00390625 74.59375 C-38.25785156 75.24601562 -38.51179688 75.89828125 -38.7734375 76.5703125 C-40.66183602 81.36557167 -42.65473249 86.0021831 -45.00390625 90.59375 C-46.93659908 94.4728394 -46.93659908 94.4728394 -46.00390625 98.59375 C-42.21473353 91.57446284 -38.89986987 84.37458771 -37.00390625 76.59375 C-37.33390625 75.93375 -37.66390625 75.27375 -38.00390625 74.59375 Z M-6.00390625 85.59375 C-6.00390625 86.25375 -6.00390625 86.91375 -6.00390625 87.59375 C-5.34390625 87.26375 -4.68390625 86.93375 -4.00390625 86.59375 C-4.66390625 86.26375 -5.32390625 85.93375 -6.00390625 85.59375 Z M-54.00390625 91.59375 C-53.00390625 93.59375 -53.00390625 93.59375 -53.00390625 93.59375 Z M5.99609375 90.59375 C5.33609375 91.25375 4.67609375 91.91375 3.99609375 92.59375 C4.98609375 92.59375 5.97609375 92.59375 6.99609375 92.59375 C6.66609375 91.93375 6.33609375 91.27375 5.99609375 90.59375 Z M2.99609375 92.59375 C3.99609375 94.59375 3.99609375 94.59375 3.99609375 94.59375 Z M3.99609375 94.59375 C3.99609375 95.25375 3.99609375 95.91375 3.99609375 96.59375 C4.98609375 96.26375 5.97609375 95.93375 6.99609375 95.59375 C6.00609375 95.26375 5.01609375 94.93375 3.99609375 94.59375 Z M-48.00390625 98.59375 C-48.33390625 100.57375 -48.66390625 102.55375 -49.00390625 104.59375 C-48.34390625 103.93375 -47.68390625 103.27375 -47.00390625 102.59375 C-47.32242395 100.48554203 -47.32242395 100.48554203 -48.00390625 98.59375 Z M-0.00390625 104.59375 C-0.00390625 105.58375 -0.00390625 106.57375 -0.00390625 107.59375 C0.65609375 107.26375 1.31609375 106.93375 1.99609375 106.59375 C1.33609375 105.93375 0.67609375 105.27375 -0.00390625 104.59375 Z M6.99609375 124.59375 C6.99609375 125.25375 6.99609375 125.91375 6.99609375 126.59375 C7.98609375 126.26375 8.97609375 125.93375 9.99609375 125.59375 C9.00609375 125.26375 8.01609375 124.93375 6.99609375 124.59375 Z M-59.00390625 127.59375 C-59.33390625 128.25375 -59.66390625 128.91375 -60.00390625 129.59375 C-59.34390625 129.59375 -58.68390625 129.59375 -58.00390625 129.59375 C-57.67390625 130.25375 -57.34390625 130.91375 -57.00390625 131.59375 C-56.01390625 131.26375 -55.02390625 130.93375 -54.00390625 130.59375 C-55.37876157 129.05208358 -55.37876157 129.05208358 -57.00390625 127.59375 C-57.66390625 127.59375 -58.32390625 127.59375 -59.00390625 127.59375 Z M8.99609375 130.59375 C9.65609375 132.57375 10.31609375 134.55375 10.99609375 136.59375 C9.67609375 136.92375 8.35609375 137.25375 6.99609375 137.59375 C6.99609375 139.90375 6.99609375 142.21375 6.99609375 144.59375 C8.31609375 144.92375 9.63609375 145.25375 10.99609375 145.59375 C10.99609375 146.58375 10.99609375 147.57375 10.99609375 148.59375 C12.64609375 148.26375 14.29609375 147.93375 15.99609375 147.59375 C15.95484375 148.50125 15.91359375 149.40875 15.87109375 150.34375 C15.99140931 153.4719546 16.38756455 154.97989006 17.99609375 157.59375 C18.65609375 157.59375 19.31609375 157.59375 19.99609375 157.59375 C21.02846276 152.86076225 21.02846276 152.86076225 20.05859375 148.25 C18.83295422 145.18590118 18.58771655 142.56669573 18.37109375 139.28125 C18.29632813 138.21261719 18.2215625 137.14398438 18.14453125 136.04296875 C18.09554687 135.23472656 18.0465625 134.42648437 17.99609375 133.59375 C16.34609375 134.25375 14.69609375 134.91375 12.99609375 135.59375 C12.99609375 133.94375 12.99609375 132.29375 12.99609375 130.59375 C13.98609375 130.26375 14.97609375 129.93375 15.99609375 129.59375 C12.51027519 128.3917436 12.31617031 128.38036563 8.99609375 130.59375 Z M-70.00390625 142.59375 C-70.33390625 143.25375 -70.66390625 143.91375 -71.00390625 144.59375 C-70.34390625 144.59375 -69.68390625 144.59375 -69.00390625 144.59375 C-69.33390625 143.93375 -69.66390625 143.27375 -70.00390625 142.59375 Z M19.99609375 157.59375 C20.32609375 159.24375 20.65609375 160.89375 20.99609375 162.59375 C21.32609375 162.59375 21.65609375 162.59375 21.99609375 162.59375 C21.99609375 160.94375 21.99609375 159.29375 21.99609375 157.59375 C21.33609375 157.59375 20.67609375 157.59375 19.99609375 157.59375 Z " fill="#FDFDFD" transform="translate(249.00390625,180.40625)"/>
<path d="M0 0 C1.12051758 -0.01945679 1.12051758 -0.01945679 2.26367188 -0.03930664 C6.00800381 -0.04586184 7.61333381 0.05472254 10.8125 2.1875 C12.60041373 7.9759153 11.54719755 14.22875739 11.0703125 20.171875 C10.98248505 21.34147766 10.89465759 22.51108032 10.8041687 23.71612549 C10.52203327 27.45713363 10.23017751 31.19730319 9.9375 34.9375 C9.56230109 39.82791314 9.19063865 44.71859061 8.8203125 49.609375 C8.7301738 50.79923004 8.6400351 51.98908508 8.54716492 53.21499634 C7.34360128 69.24637189 6.62968853 85.24160162 6.25 101.3125 C6.20663162 103.06120417 6.16301285 104.80990215 6.11914062 106.55859375 C6.01405797 110.76816383 5.91230303 114.97780158 5.8125 119.1875 C4.8225 119.1875 3.8325 119.1875 2.8125 119.1875 C3.1425 120.5075 3.4725 121.8275 3.8125 123.1875 C3.8125 122.1975 3.8125 121.2075 3.8125 120.1875 C4.4725 120.1875 5.1325 120.1875 5.8125 120.1875 C5.8125 131.01997919 5.74073806 141.84456296 5.55004883 152.67553711 C5.51665511 154.72688862 5.48866916 156.77833522 5.46606445 158.82983398 C5.43264681 161.78409543 5.38036169 164.73750035 5.32421875 167.69140625 C5.31463387 169.07266441 5.31463387 169.07266441 5.30485535 170.48182678 C5.28506119 171.33288498 5.26526703 172.18394318 5.24487305 173.06079102 C5.23376999 173.81119156 5.22266693 174.5615921 5.21122742 175.33473206 C4.8125 177.1875 4.8125 177.1875 1.8125 179.1875 C-0.12255859 179.44819641 -0.12255859 179.44819641 -2.3359375 179.4621582 C-3.16689941 179.47169022 -3.99786133 179.48122223 -4.85400391 179.49104309 C-5.74780762 179.49013168 -6.64161133 179.48922028 -7.5625 179.48828125 C-8.48337402 179.49256638 -9.40424805 179.4968515 -10.35302734 179.50126648 C-12.29979632 179.50700889 -14.24658676 179.5075107 -16.19335938 179.50317383 C-19.17615207 179.50001203 -22.15795483 179.52348035 -25.140625 179.54882812 C-27.03124875 179.55110089 -28.92187516 179.55180472 -30.8125 179.55078125 C-31.70630371 179.559991 -32.60010742 179.56920074 -33.52099609 179.57868958 C-34.35195801 179.57246078 -35.18291992 179.56623199 -36.0390625 179.55981445 C-36.76947754 179.56044388 -37.49989258 179.5610733 -38.25244141 179.5617218 C-40.77610605 179.07366923 -41.66140962 178.22955269 -43.1875 176.1875 C-43.42104171 173.60304727 -43.47824202 171.27149334 -43.390625 168.6953125 C-43.37719055 167.94089874 -43.3637561 167.18648499 -43.34991455 166.40921021 C-43.32067818 164.80593129 -43.2853458 163.20275367 -43.24438477 161.59973145 C-43.1903104 159.30667683 -43.16242009 157.01528382 -43.14648438 154.72167969 C-42.95785956 129.048115 -41.72123016 103.4382968 -40.25 77.8125 C-40.20709335 77.06394493 -40.16418671 76.31538986 -40.11997986 75.54415131 C-39.62180496 66.87176591 -39.10733716 58.20047568 -38.57396507 49.53018379 C-38.31028603 45.23577719 -38.05601746 40.94093675 -37.80873585 36.6455555 C-37.64475457 33.81826302 -37.47493202 30.99134031 -37.3038311 28.16447067 C-37.18778371 26.21869099 -37.07851351 24.27251076 -36.96949768 22.32632446 C-36.0784142 7.86328335 -36.0784142 7.86328335 -34.1875 2.1875 C-31.883625 1.0355625 -30.37925943 0.98920414 -27.8125 0.87109375 C-26.91764893 0.82895752 -26.02279785 0.78682129 -25.10083008 0.7434082 C-24.13943115 0.7043335 -23.17803223 0.66525879 -22.1875 0.625 C-21.20740967 0.5839917 -20.22731934 0.5429834 -19.2175293 0.50073242 C-12.81295307 0.25051724 -6.4093058 0.05917305 0 0 Z M-31.1875 7.1875 C-31.5175 15.1075 -31.8475 23.0275 -32.1875 31.1875 C-31.5275 31.5175 -30.8675 31.8475 -30.1875 32.1875 C-30.5175 30.2075 -30.8475 28.2275 -31.1875 26.1875 C-30.1975 26.1875 -29.2075 26.1875 -28.1875 26.1875 C-28.1875 25.1975 -28.1875 24.2075 -28.1875 23.1875 C-27.5275 23.1875 -26.8675 23.1875 -26.1875 23.1875 C-25.919375 22.28 -25.65125 21.3725 -25.375 20.4375 C-24.28074505 17.44269697 -23.07954417 15.68155822 -21.1875 13.1875 C-21.1875 12.1975 -21.1875 11.2075 -21.1875 10.1875 C-20.8575 9.1975 -20.5275 8.2075 -20.1875 7.1875 C-21.26 7.373125 -22.3325 7.55875 -23.4375 7.75 C-27.1875 8.1875 -27.1875 8.1875 -31.1875 7.1875 Z M-16.1875 8.1875 C-15.5275 8.8475 -14.8675 9.5075 -14.1875 10.1875 C-14.1875 9.5275 -14.1875 8.8675 -14.1875 8.1875 C-14.8475 8.1875 -15.5075 8.1875 -16.1875 8.1875 Z M-31.1875 35.1875 C-32.86580848 38.54411695 -31.8228188 41.54885594 -31.1875 45.1875 C-30.5275 45.5175 -29.8675 45.8475 -29.1875 46.1875 C-29.5175 42.5575 -29.8475 38.9275 -30.1875 35.1875 C-30.5175 35.1875 -30.8475 35.1875 -31.1875 35.1875 Z M-30.1875 47.1875 C-31.60327477 48.37174326 -31.60327477 48.37174326 -31.25 51.75 C-31.229375 52.884375 -31.20875 54.01875 -31.1875 55.1875 C-30.5275 54.8575 -29.8675 54.5275 -29.1875 54.1875 C-29.1875 51.8775 -29.1875 49.5675 -29.1875 47.1875 C-29.5175 47.1875 -29.8475 47.1875 -30.1875 47.1875 Z M-32.1875 55.1875 C-32.5175 58.4875 -32.8475 61.7875 -33.1875 65.1875 C-32.1975 65.6825 -32.1975 65.6825 -31.1875 66.1875 C-30.96575067 64.73114629 -30.76051302 63.27227044 -30.5625 61.8125 C-30.38847656 60.59433594 -30.38847656 60.59433594 -30.2109375 59.3515625 C-30.20320313 58.63742188 -30.19546875 57.92328125 -30.1875 57.1875 C-30.8475 56.5275 -31.5075 55.8675 -32.1875 55.1875 Z M-32.1875 71.1875 C-32.1875 73.1675 -32.1875 75.1475 -32.1875 77.1875 C-31.8575 77.1875 -31.5275 77.1875 -31.1875 77.1875 C-31.1875 75.2075 -31.1875 73.2275 -31.1875 71.1875 C-31.5175 71.1875 -31.8475 71.1875 -32.1875 71.1875 Z M-33.1875 77.1875 C-32.1875 81.1875 -32.1875 81.1875 -32.1875 81.1875 Z M-34.1875 84.1875 C-33.1975 85.6725 -33.1975 85.6725 -32.1875 87.1875 C-32.1875 86.1975 -32.1875 85.2075 -32.1875 84.1875 C-32.8475 84.1875 -33.5075 84.1875 -34.1875 84.1875 Z M-34.1875 93.1875 C-34.5175 94.5075 -34.8475 95.8275 -35.1875 97.1875 C-34.1975 97.6825 -34.1975 97.6825 -33.1875 98.1875 C-33.1875 96.5375 -33.1875 94.8875 -33.1875 93.1875 C-33.5175 93.1875 -33.8475 93.1875 -34.1875 93.1875 Z M-35.1875 99.1875 C-35.5175 100.1775 -35.8475 101.1675 -36.1875 102.1875 C-35.1975 103.6725 -35.1975 103.6725 -34.1875 105.1875 C-34.1875 103.2075 -34.1875 101.2275 -34.1875 99.1875 C-34.5175 99.1875 -34.8475 99.1875 -35.1875 99.1875 Z M-36.1875 108.1875 C-35.1875 110.1875 -35.1875 110.1875 -35.1875 110.1875 Z M-6.1875 109.1875 C-6.1875 109.8475 -6.1875 110.5075 -6.1875 111.1875 C-5.5275 110.8575 -4.8675 110.5275 -4.1875 110.1875 C-4.8475 109.8575 -5.5075 109.5275 -6.1875 109.1875 Z M-14.1875 124.1875 C-13.1975 125.6725 -13.1975 125.6725 -12.1875 127.1875 C-11.5275 127.1875 -10.8675 127.1875 -10.1875 127.1875 C-10.1875 126.5275 -10.1875 125.8675 -10.1875 125.1875 C-11.5075 124.8575 -12.8275 124.5275 -14.1875 124.1875 Z M1.8125 132.1875 C2.1425 133.5075 2.4725 134.8275 2.8125 136.1875 C3.1425 134.8675 3.4725 133.5475 3.8125 132.1875 C3.1525 132.1875 2.4925 132.1875 1.8125 132.1875 Z M-7.1875 155.1875 C-6.1875 157.1875 -6.1875 157.1875 -6.1875 157.1875 Z M-0.1875 160.1875 C-0.5175 160.8475 -0.8475 161.5075 -1.1875 162.1875 C-0.1975 161.8575 0.7925 161.5275 1.8125 161.1875 C1.1525 160.8575 0.4925 160.5275 -0.1875 160.1875 Z M-5.1875 164.1875 C-4.1875 166.1875 -4.1875 166.1875 -4.1875 166.1875 Z " fill="#FDFDFD" transform="translate(479.1875,173.8125)"/>
<path d="M0 0 C0.74132172 0.00202423 1.48264343 0.00404846 2.24642944 0.00613403 C3.02364853 0.00438171 3.80086761 0.00262939 4.60163879 0.00082397 C7.18386027 -0.00359546 9.76601385 -0.00065595 12.34823608 0.00271606 C14.13563551 0.00204298 15.92303485 0.00107292 17.71043396 -0.00018311 C21.46235015 -0.00166026 25.21424257 0.00049478 28.96615601 0.00515747 C33.7828991 0.01085066 38.59958643 0.00757846 43.41632748 0.00158501 C47.10939455 -0.00202364 50.80244835 -0.00088054 54.49551582 0.0017128 C56.27178517 0.00238144 58.0480557 0.00155583 59.82432365 -0.00076675 C62.30490194 -0.00329779 64.78538921 0.00055391 67.26596069 0.00613403 C68.00525818 0.0041098 68.74455566 0.00208557 69.5062561 0 C74.59236533 0.02126506 74.59236533 0.02126506 76.82089233 1.13552856 C76.84402863 11.66207095 76.86181402 22.18860731 76.87270451 32.71516991 C76.8779305 37.60269441 76.88502305 42.49020155 76.89633179 47.37771606 C76.90717068 52.09148963 76.91317131 56.80524646 76.91576958 61.51903152 C76.91762201 63.32042326 76.92123917 65.12181405 76.92662239 66.9231987 C76.93384609 69.43979647 76.93488271 71.95632449 76.93441772 74.47293091 C76.938013 75.22315018 76.94160828 75.97336945 76.9453125 76.74632263 C76.9349445 81.90742424 76.9349445 81.90742424 75.82089233 84.13552856 C66.90127878 84.1588222 57.98167589 84.17652967 49.06203842 84.18734074 C44.91914537 84.19253263 40.77627331 84.1995622 36.63339233 84.21096802 C32.62631273 84.22192941 28.61925318 84.22783313 24.61215973 84.23040581 C23.09255915 84.2322364 21.57295953 84.23581038 20.05336761 84.24125862 C11.26196056 84.27149062 2.57149985 84.05666232 -6.17910767 83.13552856 C-6.20223094 72.46133158 -6.22002267 61.78714051 -6.23091984 51.11292362 C-6.2361487 46.15698935 -6.2432464 41.20107215 -6.25454712 36.24514771 C-6.26537589 31.46654021 -6.27138448 26.68794918 -6.27398491 21.90933037 C-6.27583918 20.08199237 -6.27945982 18.25465532 -6.28483772 16.4273243 C-6.29204802 13.87699528 -6.29309861 11.3267352 -6.29263306 8.77639771 C-6.29622833 8.01323242 -6.29982361 7.25006714 -6.30352783 6.46377563 C-6.29140904 0.36909098 -6.11064781 0.02565593 0 0 Z " fill="#D87C27" transform="translate(215.17910766601563,48.864471435546875)"/>
<path d="M0 0 C0.69159714 -0.00175232 1.38319427 -0.00350464 2.0957489 -0.00531006 C4.3779045 -0.00970435 6.6599823 -0.00679814 8.94213867 -0.00341797 C10.53391027 -0.00409193 12.12568176 -0.00506274 13.717453 -0.00631714 C17.0538328 -0.00779102 20.39018582 -0.00565033 23.7265625 -0.00097656 C27.99007469 0.00470663 32.25352373 0.00144872 36.51703358 -0.00454903 C39.80539927 -0.00817485 43.09375017 -0.00700654 46.38211632 -0.00442123 C47.95329483 -0.00375683 49.52447471 -0.00456328 51.09565163 -0.00690079 C53.29948059 -0.00945901 55.50320966 -0.00554176 57.70703125 0 C59.584226 0.00119339 59.584226 0.00119339 61.49934387 0.00241089 C65.07961721 0.13054008 68.51328068 0.55772127 72.04760742 1.12939453 C72.0707307 11.80359152 72.08852243 22.47778259 72.09941959 33.15199947 C72.10464846 38.10793375 72.11174616 43.06385095 72.12304688 48.01977539 C72.13387564 52.79838289 72.13988423 57.57697391 72.14248466 62.35559273 C72.14433893 64.18293073 72.14795958 66.01026778 72.15333748 67.8375988 C72.16054778 70.38792782 72.16159837 72.9381879 72.16113281 75.48852539 C72.16472809 76.25169067 72.16832336 77.01485596 72.17202759 77.80114746 C72.16165958 83.01534237 72.16165958 83.01534237 71.04760742 84.12939453 C68.59909475 84.22971713 66.17877427 84.26557633 63.72973633 84.25878906 C62.58094749 84.26141754 62.58094749 84.26141754 61.40895081 84.26409912 C58.86400114 84.26851901 56.31912036 84.2655786 53.77416992 84.26220703 C52.01158637 84.26288017 50.24900291 84.26385028 48.48641968 84.2651062 C44.78577799 84.26658347 41.08516038 84.2644282 37.38452148 84.25976562 C32.63737883 84.25407665 27.8902928 84.25734188 23.14315224 84.26333809 C19.50065687 84.26695003 15.85817494 84.26580205 12.21567917 84.2632103 C10.46535612 84.26254235 8.71503186 84.26336485 6.96471024 84.26568985 C4.51786312 84.2682258 2.07110785 84.26436204 -0.37573242 84.25878906 C-1.46525963 84.26182541 -1.46525963 84.26182541 -2.57679749 84.2649231 C-5.64761299 84.25194857 -8.01457442 84.10866725 -10.95239258 83.12939453 C-11.70335005 77.83024853 -12.0568191 72.79440415 -11.97412109 67.42822266 C-11.95970978 66.34382401 -11.95970978 66.34382401 -11.94500732 65.23751831 C-11.91236394 62.87845014 -11.8719031 60.51958792 -11.83129883 58.16064453 C-11.80696369 56.51298724 -11.7831219 54.8653226 -11.75975037 53.21765137 C-11.69724676 48.90384474 -11.62808662 44.59017011 -11.55749512 40.27648926 C-11.48650496 35.8655391 -11.42187231 31.45449616 -11.35668945 27.04345703 C-11.22811254 18.40533338 -11.09249657 9.76733888 -10.95239258 1.12939453 C-7.28427966 -0.02322133 -3.82830664 0.00243842 0 0 Z " fill="#D97C26" transform="translate(219.952392578125,366.87060546875)"/>
<path d="M0 0 C8.97669507 7.64807606 16.01735382 17.73231802 17.05859375 29.75390625 C17.04241939 42.74191533 14.11827931 53.50133311 4.9140625 62.95703125 C-4.58014374 71.69105403 -15.15705 76.60618918 -28.37890625 76.09765625 C-40.43953579 74.47976692 -50.69017831 68.32911897 -58.40625 59.0078125 C-66.05408439 47.77931264 -67.60196834 35.09723793 -65.48046875 21.8828125 C-62.51097149 12.08347154 -55.11490597 2.68340365 -46.5234375 -2.78515625 C-31.37870926 -10.81538425 -14.10377866 -10.32551869 0 0 Z " fill="#B823E0" transform="translate(433.94140625,375.24609375)"/>
<path d="M0 0 C9.05661829 7.75301414 15.22812909 16.85724989 17.0625 28.765625 C17.43276121 41.41146941 14.01331127 51.93220784 6.0625 61.765625 C-2.83874842 70.93880565 -13.1033195 75.60378324 -25.9375 76.203125 C-37.22310841 75.76906314 -46.94597058 70.50415318 -54.97265625 62.81640625 C-58.89909141 58.57318864 -61.78526678 54.13090781 -63.9375 48.765625 C-64.29585937 47.87746094 -64.65421875 46.98929687 -65.0234375 46.07421875 C-67.53878846 36.96950821 -67.53732962 24.16317872 -62.9375 15.765625 C-56.99132316 5.56527286 -49.24643803 -2.38366133 -37.9375 -6.234375 C-37.28007813 -6.45867187 -36.62265625 -6.68296875 -35.9453125 -6.9140625 C-23.55570996 -10.54635561 -10.3663206 -7.54607161 0 0 Z " fill="#B923E0" transform="translate(115.9375,375.234375)"/>
<path d="M0 0 C13.14519641 7.08461301 18.81766627 15.40612382 23.45703125 29.32421875 C24.06698009 39.25338594 24.49840465 48.43548144 19.45703125 57.32421875 C19.10640625 58.01515625 18.75578125 58.70609375 18.39453125 59.41796875 C13.41301175 68.41237896 4.6033833 75.5309913 -5.23828125 78.40234375 C-15.81447652 80.92586353 -27.90957211 80.59854219 -37.54296875 75.32421875 C-48.00498736 68.60457564 -55.64227871 59.54944457 -58.54296875 47.32421875 C-59.83616236 34.13547825 -58.56678837 23.55037916 -50.5546875 12.75 C-44.55647652 5.51720578 -38.49016541 1.18279963 -29.54296875 -1.67578125 C-20.73694585 -4.61112222 -8.43442087 -3.6924884 0 0 Z " fill="#B823E0" transform="translate(419.54296875,52.67578125)"/>
<path d="M0 0 C8.66072872 10.30567262 10.17632648 20.97728951 9.5390625 34.01464844 C8.52374774 44.03212899 2.18414746 52.92667275 -5.125 59.5 C-15.77784172 68.09703016 -27.4261996 69.50275875 -40.6875 68.25 C-51.44754217 66.07717407 -60.43445665 59.16106483 -66.6875 50.25 C-72.37324828 40.60486925 -74.99952279 29.97344079 -73.1015625 18.80078125 C-69.9376736 7.37562687 -63.41999318 -1.91990349 -53.6875 -8.75 C-50.43156636 -10.38032961 -47.15278001 -11.6428618 -43.6875 -12.75 C-42.6975 -13.08 -41.7075 -13.41 -40.6875 -13.75 C-24.27437394 -16.17160876 -11.54829459 -12.29015506 0 0 Z " fill="#B923E0" transform="translate(122.6875,63.75)"/>
<path d="M0 0 C0.33 0 0.66 0 1 0 C1.02688151 1.64574566 1.04634123 3.29161413 1.0625 4.9375 C1.07410156 5.85402344 1.08570313 6.77054687 1.09765625 7.71484375 C1 10 1 10 0 11 C-2.44851267 11.1003226 -4.86883315 11.1361818 -7.31787109 11.12939453 C-8.08373032 11.13114685 -8.84958954 11.13289917 -9.63865662 11.13470459 C-12.18360628 11.13912448 -14.72848706 11.13618407 -17.2734375 11.1328125 C-19.03602105 11.13348564 -20.79860451 11.13445575 -22.56118774 11.13571167 C-26.26182943 11.13718894 -29.96244704 11.13503367 -33.66308594 11.13037109 C-38.4102286 11.12468212 -43.15731462 11.12794734 -47.90445518 11.13394356 C-51.54695055 11.1375555 -55.18943248 11.13640752 -58.83192825 11.13381577 C-60.5822513 11.13314782 -62.33257556 11.13397032 -64.08289719 11.13629532 C-66.52974431 11.13883127 -68.97649957 11.13496751 -71.42333984 11.12939453 C-72.51286705 11.13243088 -72.51286705 11.13243088 -73.62440491 11.13552856 C-76.69522041 11.12255404 -79.06218184 10.97927272 -82 10 C-82 7.36 -82 4.72 -82 2 C-81.01 2.495 -81.01 2.495 -80 3 C-79.67 4.65 -79.34 6.3 -79 8 C-53.26 8.33 -27.52 8.66 -1 9 C-0.67 6.03 -0.34 3.06 0 0 Z " fill="#C27A3A" transform="translate(291,440)"/>
<path d="M0 0 C0.33 0.66 0.66 1.32 1 2 C-2.26573814 9.63898747 -7.59865102 14.90737126 -14 20 C-14.66 19.67 -15.32 19.34 -16 19 C-16 18.34 -16 17.68 -16 17 C-14.68 17 -13.36 17 -12 17 C-11.896875 16.2575 -11.79375 15.515 -11.6875 14.75 C-10.93969576 11.75878306 -10.17558321 10.17558321 -8 8 C-6.68 8 -5.36 8 -4 8 C-4 6.35 -4 4.7 -4 3 C-3.01 3 -2.02 3 -1 3 C-0.67 2.01 -0.34 1.02 0 0 Z " fill="#AA2DC9" transform="translate(128,106)"/>
<path d="M0 0 C3.1875 -0.25 3.1875 -0.25 6 0 C0.33943239 6.33983572 -6.802528 9.56350121 -15.23925781 10.15771484 C-17.49633819 10.1952516 -19.74324762 10.17584537 -22 10.125 C-23.16208984 10.11146484 -23.16208984 10.11146484 -24.34765625 10.09765625 C-26.23190843 10.07439388 -28.11599832 10.0385364 -30 10 C-30 9.67 -30 9.34 -30 9 C-28.91460937 8.95101562 -27.82921875 8.90203125 -26.7109375 8.8515625 C-25.26560216 8.77648014 -23.82029081 8.70093472 -22.375 8.625 C-21.66214844 8.5940625 -20.94929688 8.563125 -20.21484375 8.53125 C-15.82063433 8.28936691 -12.14922852 7.59349987 -8 6 C-7.113125 5.71125 -6.22625 5.4225 -5.3125 5.125 C-2.85564643 4.16794995 -2.85564643 4.16794995 -1.5625 1.875 C-1.046875 1.25625 -0.53125 0.6375 0 0 Z " fill="#9631B4" transform="translate(423,122)"/>
<path d="M0 0 C-5.24079214 5.73211641 -10.99534274 10.39965071 -19 11 C-19 10.34 -19 9.68 -19 9 C-17.68 9 -16.36 9 -15 9 C-15 8.34 -15 7.68 -15 7 C-13.125 5.9375 -13.125 5.9375 -11 5 C-10.34 5.33 -9.68 5.66 -9 6 C-9 4.68 -9 3.36 -9 2 C-8.34 2 -7.68 2 -7 2 C-6.67 1.34 -6.34 0.68 -6 0 C-3 -1 -3 -1 0 0 Z " fill="#A32AC3" transform="translate(120,438)"/>
<path d="M0 0 C0 0.33 0 0.66 0 1 C-1.9914056 1.38133299 -3.99279077 1.71325582 -6 2 C-6.33 1.67 -6.66 1.34 -7 1 C-14.62720396 -0.05514679 -20.99911096 1.65796818 -28.04736328 4.30908203 C-29.68181008 4.91873283 -31.3396972 5.464757 -33 6 C-33.66 5.67 -34.32 5.34 -35 5 C-27.86119261 0.6293016 -21.20674035 -1.26175057 -12.875 -1.75 C-11.84052734 -1.83314453 -11.84052734 -1.83314453 -10.78515625 -1.91796875 C-6.66540073 -2.17791508 -3.69568738 -1.86941385 0 0 Z " fill="#A131C1" transform="translate(103,51)"/>
<path d="M0 0 C0 3 0 3 -1.4375 4.75 C-3.51478758 7.74129412 -3.65603142 10.42272676 -4 14 C-3.34 14 -2.68 14 -2 14 C-2.33 14.99 -2.66 15.98 -3 17 C-3.78375 17.12375 -4.5675 17.2475 -5.375 17.375 C-8.14057822 17.79117993 -8.14057822 17.79117993 -10 20 C-8.71856055 11.92693146 -5.83088011 5.83088011 0 0 Z " fill="#A72FC9" transform="translate(379,380)"/>
<path d="M0 0 C3.79303725 1.00193437 6.71536341 1.81024227 10 4 C17.48116596 6.44576579 25.19783559 6.61395541 33 7 C27.30472252 10.29587817 21.06925034 9.73239184 14.82421875 8.2421875 C9.33862328 6.50701783 4.49739713 4.62290324 0 1 C0 0.67 0 0.34 0 0 Z " fill="#932BAF" transform="translate(67,442)"/>
<path d="M0 0 C1.98 0 3.96 0 6 0 C1.6027017 5.16719564 -5.84755487 6.69504319 -12.3515625 7.32421875 C-20.32453209 7.45031194 -20.32453209 7.45031194 -24 5 C-22.92878906 4.93941406 -21.85757812 4.87882812 -20.75390625 4.81640625 C-19.35675609 4.73201463 -17.95962143 4.64736594 -16.5625 4.5625 C-15.50192383 4.50352539 -15.50192383 4.50352539 -14.41992188 4.44335938 C-10.91309581 4.52375562 -10.91309581 4.52375562 -8 3 C-5.32941149 2.85884839 -2.67567762 2.95752893 0 3 C0 2.01 0 1.02 0 0 Z " fill="#9328B1" transform="translate(424,444)"/>
<path d="M0 0 C4.82890552 3.51193128 8.306434 7.12507794 10 13 C9.59765625 15.24609375 9.59765625 15.24609375 9 17 C8.34 16.34 7.68 15.68 7 15 C5.68 15 4.36 15 3 15 C3 14.34 3 13.68 3 13 C3.66 12.67 4.32 12.34 5 12 C5 10.68 5 9.36 5 8 C3.68 7.67 2.36 7.34 1 7 C0.67 4.69 0.34 2.38 0 0 Z " fill="#9529BE" transform="translate(431,62)"/>
<path d="M0 0 C0.33 0 0.66 0 1 0 C1 12.87 1 25.74 1 39 C0.67 39 0.34 39 0 39 C0 32.07 0 25.14 0 18 C-0.99 17.67 -1.98 17.34 -3 17 C-3 16.34 -3 15.68 -3 15 C-2.34 15 -1.68 15 -1 15 C-0.67 10.05 -0.34 5.1 0 0 Z " fill="#F1F1F0" transform="translate(343,288)"/>
<path d="M0 0 C0.515625 0.268125 1.03125 0.53625 1.5625 0.8125 C8.07181195 3.98771415 8.07181195 3.98771415 15 6 C15 6.99 15 7.98 15 9 C16.65 9 18.3 9 20 9 C20 9.66 20 10.32 20 11 C12.24842481 9.87477134 6.99787942 7.04583507 1 2 C0.67 1.34 0.34 0.68 0 0 Z " fill="#9D2DBC" transform="translate(380,438)"/>
<path d="M0 0 C2.0625 0.4375 2.0625 0.4375 4 1 C-2.83653487 4.02385196 -8.09262859 5.18119631 -15.5625 5.1875 C-16.71395508 5.20586914 -16.71395508 5.20586914 -17.88867188 5.22460938 C-21.78417874 5.23479815 -23.6866199 5.20892006 -27 3 C-25.71222656 3.01160156 -24.42445312 3.02320313 -23.09765625 3.03515625 C-21.41927228 3.0445327 -19.74088674 3.05363305 -18.0625 3.0625 C-17.21236328 3.07087891 -16.36222656 3.07925781 -15.48632812 3.08789062 C-14.67744141 3.09111328 -13.86855469 3.09433594 -13.03515625 3.09765625 C-12.2862915 3.10289307 -11.53742676 3.10812988 -10.76586914 3.11352539 C-8.97332261 3.19341752 -8.97332261 3.19341752 -8 2 C-4.5 1.5 -4.5 1.5 -1 1 C-0.67 0.67 -0.34 0.34 0 0 Z " fill="#9A31B4" transform="translate(106,127)"/>
<path d="M0 0 C3.49312684 5.23969026 1.76474044 11.95608362 1 18 C0.2586802 21.2583591 -0.66940116 23.91301069 -2 27 C-2.66 27.33 -3.32 27.66 -4 28 C-3.69249629 25.85344499 -3.3788634 23.70776715 -3.0625 21.5625 C-2.88847656 20.36753906 -2.71445312 19.17257812 -2.53515625 17.94140625 C-2 15 -2 15 -1 14 C-0.76472227 11.65012738 -0.58613583 9.29443961 -0.4375 6.9375 C-0.35371094 5.64714844 -0.26992188 4.35679687 -0.18359375 3.02734375 C-0.12300781 2.02832031 -0.06242187 1.02929688 0 0 Z " fill="#9931B8" transform="translate(449,400)"/>
<path d="M0 0 C1.6415049 3.2830098 0.51888624 6.42545033 0 10 C-0.66 10 -1.32 10 -2 10 C-1.67 16.27 -1.34 22.54 -1 29 C-4.81632549 23.27551177 -4.57058043 15.31091908 -3.42578125 8.66796875 C-1.49988799 1.49988799 -1.49988799 1.49988799 0 0 Z " fill="#9B34B5" transform="translate(53,74)"/>
<path d="M0 0 C1.20272819 2.40545638 1.10071472 3.94996953 1.0625 6.625 C1.05347656 7.44226563 1.04445313 8.25953125 1.03515625 9.1015625 C1.02355469 9.72804688 1.01195312 10.35453125 1 11 C0.01 11.495 0.01 11.495 -1 12 C-1 10.35 -1 8.7 -1 7 C-1.66 7 -2.32 7 -3 7 C-3 7.66 -3 8.32 -3 9 C-3.99 9.33 -4.98 9.66 -6 10 C-4.6302836 6.00499382 -2.74277578 3.19990508 0 0 Z " fill="#AA2DCC" transform="translate(61,380)"/>
<path d="M0 0 C1.65 0.33 3.3 0.66 5 1 C4.36884161 4.15579194 3.27895408 6.47275215 1.5625 9.1875 C0.91474609 10.22970703 0.91474609 10.22970703 0.25390625 11.29296875 C-1 13 -1 13 -3 14 C-2 11 -1 8 0 5 C0.03874921 3.33378384 0.0450286 1.66605828 0 0 Z " fill="#AA2ACE" transform="translate(435,105)"/>
<path d="M0 0 C0.33 0 0.66 0 1 0 C1 5.28 1 10.56 1 16 C1.99 16 2.98 16 4 16 C3.67 18.64 3.34 21.28 3 24 C0.60815594 20.41223391 -0.12754433 17.98375055 -0.09765625 13.76953125 C-0.09282227 12.56586914 -0.09282227 12.56586914 -0.08789062 11.33789062 C-0.07951172 10.50451172 -0.07113281 9.67113281 -0.0625 8.8125 C-0.05798828 7.96751953 -0.05347656 7.12253906 -0.04882812 6.25195312 C-0.03705403 4.16793845 -0.0191189 2.08396023 0 0 Z " fill="#A02FBE" transform="translate(50,400)"/>
<path d="M0 0 C0 3.18898188 -0.58204829 4.2475055 -2 7 C-2.36784131 8.3242287 -2.71202981 9.65613912 -3 11 C-3 10.34 -3 9.68 -3 9 C-3.99 9.33 -4.98 9.66 -6 10 C-6.33 10.99 -6.66 11.98 -7 13 C-7.66 13 -8.32 13 -9 13 C-7.47987323 7.59510481 -3.72614782 4.01507372 0 0 Z " fill="#A531C4" transform="translate(64,59)"/>
<path d="M0 0 C0.33 0.99 0.66 1.98 1 3 C-0.36328125 5.4453125 -0.36328125 5.4453125 -2.3125 8.125 C-3.26576172 9.45917969 -3.26576172 9.45917969 -4.23828125 10.8203125 C-6 13 -6 13 -8 14 C-8 13.01 -8 12.02 -8 11 C-7.34 10.67 -6.68 10.34 -6 10 C-6.33 9.34 -6.66 8.68 -7 8 C-6.01 8 -5.02 8 -4 8 C-4 6.68 -4 5.36 -4 4 C-3.34 4 -2.68 4 -2 4 C-1.34 2.68 -0.68 1.36 0 0 Z " fill="#A02EBB" transform="translate(128,424)"/>
<path d="M0 0 C0 0.33 0 0.66 0 1 C-1.01320313 1.19916016 -1.01320313 1.19916016 -2.046875 1.40234375 C-3.38492188 1.66724609 -3.38492188 1.66724609 -4.75 1.9375 C-5.63171875 2.11152344 -6.5134375 2.28554688 -7.421875 2.46484375 C-9.94099714 2.93564726 -9.94099714 2.93564726 -12.078125 3.69140625 C-14.61668763 4.09902098 -15.84656735 3.30744125 -18 2 C-11.64647324 -0.03358813 -6.57293456 -1.60671734 0 0 Z " fill="#A338BE" transform="translate(93,368)"/>
<path d="M0 0 C0 2 0 2 -2.3125 4.5625 C-5 7 -5 7 -8 8 C-8.69937532 9.31647119 -9.36729133 10.65022151 -10 12 C-10.99 12.495 -10.99 12.495 -12 13 C-10.66182195 9.02031425 -8.99662286 6.61251238 -6 3.6875 C-5.29875 2.99011719 -4.5975 2.29273438 -3.875 1.57421875 C-2 0 -2 0 0 0 Z " fill="#9D34B8" transform="translate(379,57)"/>
<path d="M0 0 C4.2715514 2.92264043 5.65671449 5.0401766 7 10 C7.63815344 11.34721283 8.29325371 12.68747118 9 14 C4.46783481 10.85266306 2.38959582 7.86769519 0 3 C0 2.01 0 1.02 0 0 Z " fill="#992FB7" transform="translate(53,424)"/>
<path d="M0 0 C0.33 0.66 0.66 1.32 1 2 C0.0409375 2.1546875 0.0409375 2.1546875 -0.9375 2.3125 C-1.618125 2.539375 -2.29875 2.76625 -3 3 C-3.33 3.99 -3.66 4.98 -4 6 C-4.66 6 -5.32 6 -6 6 C-6.33 6.99 -6.66 7.98 -7 9 C-8.32 8.67 -9.64 8.34 -11 8 C-9.92130607 7.03644756 -8.83681257 6.07938583 -7.75 5.125 C-6.84507812 4.32449219 -6.84507812 4.32449219 -5.921875 3.5078125 C-4.02581254 2.0202513 -2.18709995 0.99677564 0 0 Z " fill="#A237BE" transform="translate(391,371)"/>
<path d="M0 0 C1.32 0.33 2.64 0.66 4 1 C4 6.28 4 11.56 4 17 C3.67 17 3.34 17 3 17 C2.63571223 15.0852312 2.28394694 13.16807707 1.9375 11.25 C1.74027344 10.18265625 1.54304688 9.1153125 1.33984375 8.015625 C1.02843063 5.25228095 1.1008584 3.59053383 2 1 C1.34 0.67 0.68 0.34 0 0 Z " fill="#C98845" transform="translate(288,368)"/>
<path d="M0 0 C0.33 0 0.66 0 1 0 C1.05390357 2.93774463 1.0936255 5.87450232 1.125 8.8125 C1.15013672 10.06256836 1.15013672 10.06256836 1.17578125 11.33789062 C1.18222656 12.14033203 1.18867188 12.94277344 1.1953125 13.76953125 C1.20578613 14.50792236 1.21625977 15.24631348 1.22705078 16.00708008 C1 18 1 18 -1 21 C-1.38133299 19.0085944 -1.71325582 17.00720923 -2 15 C-1.67 14.67 -1.34 14.34 -1 14 C-0.76472227 11.65012738 -0.58613583 9.29443961 -0.4375 6.9375 C-0.35371094 5.64714844 -0.26992187 4.35679688 -0.18359375 3.02734375 C-0.12300781 2.02832031 -0.06242188 1.02929688 0 0 Z " fill="#972BB4" transform="translate(131,82)"/>
<path d="M0 0 C0 0.33 0 0.66 0 1 C-1.9914056 1.38133299 -3.99279077 1.71325582 -6 2 C-6.33 1.67 -6.66 1.34 -7 1 C-9.34987262 0.76472227 -11.70556039 0.58613583 -14.0625 0.4375 C-15.35285156 0.35371094 -16.64320312 0.26992188 -17.97265625 0.18359375 C-19.47119141 0.09271484 -19.47119141 0.09271484 -21 0 C-21 -0.33 -21 -0.66 -21 -1 C-18.43802188 -1.22278071 -15.87652444 -1.42862563 -13.3125 -1.625 C-12.59126953 -1.68945312 -11.87003906 -1.75390625 -11.12695312 -1.8203125 C-6.87409746 -2.13102342 -3.81256429 -1.97020088 0 0 Z " fill="#962CB8" transform="translate(103,51)"/>
<path d="M0 0 C0.99 0.33 1.98 0.66 3 1 C3.66666667 2.66666667 4.33333333 4.33333333 5 6 C5.99 6.33 6.98 6.66 8 7 C8.33 8.65 8.66 10.3 9 12 C4.33716394 8.48417174 1.27789598 5.96351455 0 0 Z " fill="#9E31BC" transform="translate(366,110)"/>
<path d="M0 0 C0.66 0.33 1.32 0.66 2 1 C1.071875 1.598125 0.14375 2.19625 -0.8125 2.8125 C-3.87500551 4.75681763 -3.87500551 4.75681763 -5.625 6.6875 C-7.32154637 8.30693062 -8.71949044 8.6068087 -11 9 C-7.86394624 4.48408258 -4.8731652 2.3463388 0 0 Z " fill="#9F3BBC" transform="translate(73,371)"/>
<path d="M0 0 C0.9075 0.103125 1.815 0.20625 2.75 0.3125 C0.49259377 2.64774782 -1.5305761 4.49955073 -4.25 6.3125 C-5.24 5.9825 -6.23 5.6525 -7.25 5.3125 C-4.05 0.38942308 -4.05 0.38942308 0 0 Z " fill="#A72AC4" transform="translate(426.25,121.6875)"/>
<path d="M0 0 C1.32 0.33 2.64 0.66 4 1 C3.67 3.31 3.34 5.62 3 8 C2.67 8 2.34 8 2 8 C1.67 6.35 1.34 4.7 1 3 C0.67 4.98 0.34 6.96 0 9 C-0.66 8.01 -1.32 7.02 -2 6 C-1.125 2.8125 -1.125 2.8125 0 0 Z " fill="#F4F4F4" transform="translate(448,219)"/>
<path d="M0 0 C0.99 0.33 1.98 0.66 3 1 C3.33 2.98 3.66 4.96 4 7 C3.01 6.34 2.02 5.68 1 5 C-0.32 5 -1.64 5 -3 5 C-3 3 -3 3 -1.5 1.375 C-1.005 0.92125 -0.51 0.4675 0 0 Z " fill="#A52AC8" transform="translate(437,72)"/>
<path d="M0 0 C5.20540698 0.96396425 9.59913433 1.87680501 14 5 C13.01 5.495 13.01 5.495 12 6 C9.92803369 5.26821134 7.8891448 4.44100997 5.875 3.5625 C4.77929688 3.08941406 3.68359375 2.61632813 2.5546875 2.12890625 C1.71164062 1.75636719 0.86859375 1.38382813 0 1 C0 0.67 0 0.34 0 0 Z " fill="#9631B4" transform="translate(411,51)"/>
<path d="M0 0 C5.57142857 5.14285714 5.57142857 5.14285714 6 9 C4 9 4 9 2.4375 7.875 C0.50973984 5.36053022 0.34494893 3.10454033 0 0 Z " fill="#A431C2" transform="translate(121,63)"/>
<path d="M0 0 C2.31 0.33 4.62 0.66 7 1 C7 1.66 7 2.32 7 3 C4.69 3.33 2.38 3.66 0 4 C0 2.68 0 1.36 0 0 Z " fill="#AC31D0" transform="translate(96,368)"/>
<path d="M0 0 C2.475 0.495 2.475 0.495 5 1 C5 1.66 5 2.32 5 3 C6.32 3 7.64 3 9 3 C9 3.99 9 4.98 9 6 C5.06326356 4.68775452 2.77280706 3.08089673 0 0 Z " fill="#9E31BD" transform="translate(375,122)"/>
<path d="M0 0 C0.33 0.66 0.66 1.32 1 2 C0.22265625 3.7265625 0.22265625 3.7265625 -0.9375 5.625 C-1.618125 6.73875 -2.29875 7.8525 -3 9 C-3.33 9 -3.66 9 -4 9 C-4 7.02 -4 5.04 -4 3 C-3.01 3 -2.02 3 -1 3 C-0.67 2.01 -0.34 1.02 0 0 Z " fill="#9C31BC" transform="translate(128,106)"/>
<path d="M0 0 C3.875 1.75 3.875 1.75 5 4 C4.34 4 3.68 4 3 4 C3 4.66 3 5.32 3 6 C1.68 5.34 0.36 4.68 -1 4 C-0.67 2.68 -0.34 1.36 0 0 Z " fill="#A52AC9" transform="translate(425,57)"/>
<path d="M0 0 C0.33 0.66 0.66 1.32 1 2 C-2.75 7.875 -2.75 7.875 -5 9 C-3.90931332 5.22454612 -3.0916909 2.52956528 0 0 Z " fill="#992EB9" transform="translate(437,110)"/>
<path d="" fill="#FFFFFF" transform="translate(0,0)"/>
</svg>
