<?xml version="1.0" encoding="UTF-8"?>
<svg version="1.1" xmlns="http://www.w3.org/2000/svg" width="500" height="500">
<path d="M0 0 C1.09504852 -0.01142029 1.09504852 -0.01142029 2.21221924 -0.02307129 C3.7553771 -0.03385771 5.29860789 -0.03673128 6.84179688 -0.03222656 C9.18225864 -0.03125863 11.51939014 -0.07279487 13.859375 -0.1171875 C21.71394406 -0.18022468 28.42034941 -0.20718295 34.453125 5.46875 C35.00323242 5.97075928 35.55333984 6.47276855 36.12011719 6.98999023 C44.2041251 14.8425237 47.23763951 28.38123871 51.08203125 38.78125 C54.30160987 47.44017368 57.88178608 55.95022848 61.453125 64.46875 C62.76393603 61.84712794 62.72762126 59.69761113 62.90209961 56.765625 C62.9756517 55.57098633 63.0492038 54.37634766 63.12498474 53.14550781 C63.20104446 51.84967773 63.27710419 50.55384766 63.35546875 49.21875 C63.43828683 47.88114497 63.521756 46.5435801 63.60585022 45.20605469 C63.96252248 39.51943237 64.30999668 33.83228219 64.64819336 28.14453125 C64.85544485 24.66635019 65.07169042 21.18882423 65.29358101 17.71154785 C65.41671846 15.73878071 65.52957187 13.76538043 65.64231873 11.79199219 C65.71902298 10.59735352 65.79572723 9.40271484 65.87475586 8.171875 C65.938358 7.11645508 66.00196014 6.06103516 66.06748962 4.97363281 C66.453125 2.46875 66.453125 2.46875 68.453125 0.46875 C71.13096389 0.24443434 73.70241102 0.14061494 76.3828125 0.1328125 C77.16955353 0.1261557 77.95629456 0.1194989 78.76687622 0.11264038 C80.43293924 0.10250701 82.09904291 0.09782357 83.76513672 0.09814453 C86.31155602 0.09377841 88.85623217 0.05748877 91.40234375 0.01953125 C93.0208274 0.01366174 94.6393193 0.00969324 96.2578125 0.0078125 C97.0183493 -0.00655853 97.77888611 -0.02092957 98.56246948 -0.03573608 C101.90903853 -0.0068949 104.10980986 0.25521662 106.97509766 2.03735352 C109.00530981 5.37710951 108.70435481 8.09408932 108.296875 11.83203125 C108.16769128 13.3705822 108.03879947 14.90915767 107.91015625 16.44775391 C107.8342627 17.26455627 107.75836914 18.08135864 107.68017578 18.9229126 C107.28967808 23.30142054 107.02087322 27.68790116 106.734375 32.07421875 C106.60623941 33.96128222 106.47781531 35.84832611 106.34912109 37.73535156 C105.26171606 53.88674297 104.23030994 70.03391585 103.828125 86.21875 C103.80150787 87.27955276 103.80150787 87.27955276 103.77435303 88.36178589 C103.53061587 98.59375753 103.42446741 108.82725779 103.3263855 119.0614624 C103.27439061 124.45215949 103.2133956 129.8427504 103.15144539 135.23334122 C103.09945299 139.87109367 103.06233829 144.50867894 103.036026 149.14664459 C103.01661901 152.05799845 102.98502703 154.96913221 102.95037079 157.88034058 C102.93664935 159.2554403 102.92817916 160.63060305 102.92511749 162.00576782 C102.92022854 163.9020411 102.89545413 165.79823222 102.86962891 167.69433594 C102.86154205 168.76552673 102.8534552 169.83671753 102.84512329 170.94036865 C102.65108414 172.19191742 102.65108414 172.19191742 102.453125 173.46875 C98.64743184 176.00587877 95.41316095 175.89066753 90.98828125 176.0234375 C90.15856308 176.05229034 89.32884491 176.08114319 88.47398376 176.11087036 C86.71987551 176.16790498 84.96558966 176.21968452 83.21118164 176.26660156 C80.52822367 176.34338942 77.84777825 176.45220626 75.16601562 176.5625 C73.46099588 176.61395151 71.75591724 176.66349423 70.05078125 176.7109375 C68.84906029 176.76530472 68.84906029 176.76530472 67.62306213 176.82077026 C62.01387229 176.92437315 62.01387229 176.92437315 59.34489441 174.75575256 C57.36044376 172.35670556 56.36868226 170.39214106 55.29003906 167.48266602 C54.91574768 166.48964981 54.5414563 165.49663361 54.15582275 164.473526 C53.76408875 163.40073898 53.37235474 162.32795197 52.96875 161.22265625 C52.54946228 160.1017308 52.13017456 158.98080536 51.69818115 157.82591248 C50.35619131 154.23143027 49.02934535 150.63157656 47.703125 147.03125 C46.82654173 144.67344832 45.9489474 142.31602228 45.0703125 139.95898438 C43.77239415 136.47596183 42.47606068 132.99240932 41.18591309 129.50650024 C39.17430595 124.07214482 37.14665621 118.64553914 35.06445312 113.23779297 C34.69382751 112.27485825 34.3232019 111.31192352 33.94134521 110.31980896 C33.25242963 108.53591745 32.56015824 106.75331664 31.86383057 104.9723053 C30.63250897 101.78463595 29.52273029 98.82401979 28.86425781 95.46313477 C28.72858398 94.80498779 28.59291016 94.14684082 28.453125 93.46875 C27.463125 92.97375 27.463125 92.97375 26.453125 92.46875 C26.783125 91.80875 27.113125 91.14875 27.453125 90.46875 C26.463125 89.97375 26.463125 89.97375 25.453125 89.46875 C24.48005344 105.28942919 24.15276278 121.09679459 23.90087891 136.94311523 C23.55235787 158.38035629 23.55235787 158.38035629 23.046875 167.89453125 C22.98177734 169.13243408 22.91667969 170.37033691 22.84960938 171.64575195 C22.453125 174.46875 22.453125 174.46875 20.453125 176.46875 C17.40335445 176.70572988 14.44755459 176.82117699 11.39453125 176.83984375 C10.49443832 176.84887222 9.5943454 176.8579007 8.66697693 176.86720276 C6.76133562 176.88172427 4.85564424 176.8905967 2.94995117 176.89428711 C0.03023581 176.90619043 -2.88737126 176.95536151 -5.80664062 177.00585938 C-7.65623966 177.01532242 -9.5058517 177.02255802 -11.35546875 177.02734375 C-12.23053574 177.04687607 -13.10560272 177.06640839 -14.00718689 177.08653259 C-15.22844017 177.077416 -15.22844017 177.077416 -16.47436523 177.06811523 C-17.19003159 177.07318588 -17.90569794 177.07825653 -18.64305115 177.08348083 C-20.546875 176.46875 -20.546875 176.46875 -22.30384827 174.41490173 C-23.85955135 170.72766217 -23.77903415 167.63533517 -23.5078125 163.73095703 C-23.46740939 162.96213479 -23.42700628 162.19331255 -23.38537884 161.40119267 C-23.24668216 158.84182204 -23.08446962 156.28451766 -22.921875 153.7265625 C-22.81788706 151.90903324 -22.71519773 150.09142928 -22.61372375 148.27375793 C-22.3364363 143.39070972 -22.03774203 138.509192 -21.73398209 133.62772751 C-21.48465445 129.58483172 -21.24695434 125.5412831 -21.00877476 121.49771786 C-19.52943795 96.45006784 -17.85158012 71.41842373 -15.859375 46.40625 C-15.7574585 45.12502258 -15.65554199 43.84379517 -15.55053711 42.52374268 C-15.00721094 35.77086493 -14.43561336 29.02162235 -13.80767822 22.27606201 C-13.63905486 20.46098324 -13.47526925 18.64544567 -13.31732178 16.82940674 C-13.11484208 14.54141448 -12.88874442 12.25735484 -12.65234375 9.97265625 C-12.5339917 8.76552979 -12.41563965 7.55840332 -12.29370117 6.31469727 C-11.546875 3.46875 -11.546875 3.46875 -9.94946289 1.59155273 C-6.65280021 0.05092153 -3.57050757 0.00103036 0 0 Z M58.453125 127.46875 C59.453125 129.46875 59.453125 129.46875 59.453125 129.46875 Z " fill="#FEFEFE" transform="translate(320.546875,176.53125)"/>
<path d="M0 0 C0.82830322 -0.00524185 1.65660645 -0.0104837 2.51000977 -0.0158844 C4.25828939 -0.02229737 6.00661221 -0.02097697 7.75488281 -0.01245117 C10.42851552 -0.00393487 13.10001547 -0.03272038 15.7734375 -0.06445312 C17.47395769 -0.06606513 19.17448167 -0.06548761 20.875 -0.0625 C22.07201538 -0.07935097 22.07201538 -0.07935097 23.29321289 -0.09654236 C26.66407921 -0.05424305 28.90836784 0.04736869 31.67350769 2.06570435 C34.02213654 5.21837872 33.80276334 6.92776565 33.5402832 10.8215332 C33.46312576 12.12262527 33.38596832 13.42371735 33.30647278 14.76423645 C33.20066755 16.19180182 33.09459588 17.61934747 32.98828125 19.046875 C32.89330077 20.53618599 32.80033703 22.02562682 32.70927429 23.5151825 C32.46320392 27.46170082 32.19270537 31.40615845 31.91619873 35.35064697 C31.48668408 41.54130484 31.09496198 47.73456843 30.69852448 53.92741776 C30.59954691 55.47291684 30.5000906 57.01838534 30.40016937 58.5638237 C29.0073932 80.17929828 28.43090944 101.79258973 28.2265625 123.44921875 C28.21929075 124.20080954 28.212019 124.95240032 28.2045269 125.72676659 C28.13823228 132.62783898 28.07274684 139.52887331 28.03613281 146.43017578 C28.01525489 150.27213948 27.98010933 154.11374082 27.93537521 157.95549774 C27.92127311 159.3987584 27.91250592 160.84208198 27.90932083 162.28540802 C27.90443786 164.27401036 27.87971638 166.26253446 27.85400391 168.25097656 C27.84187363 169.93939667 27.84187363 169.93939667 27.82949829 171.66192627 C27.4375 174.43359375 27.4375 174.43359375 26.17648315 176.29475403 C24.02733034 177.70220906 22.75777063 177.81915579 20.19726562 177.83764648 C18.92079163 177.85667274 18.92079163 177.85667274 17.61853027 177.87608337 C16.70285278 177.87314774 15.78717529 177.8702121 14.84375 177.8671875 C13.90067993 177.87242935 12.95760986 177.8776712 11.98596191 177.8830719 C9.99211614 177.88949521 7.99823248 177.88815111 6.00439453 177.87963867 C2.94886043 177.8711254 -0.10480679 177.89989098 -3.16015625 177.93164062 C-5.09635361 177.93325259 -7.03255428 177.9326752 -8.96875 177.9296875 C-9.88442749 177.94092148 -10.80010498 177.95215546 -11.74353027 177.96372986 C-17.98289518 177.89494917 -17.98289518 177.89494917 -20.65307617 175.76953125 C-21.79273013 172.8422268 -21.84234575 170.70534318 -21.70703125 167.5625 C-21.66247803 166.3650415 -21.6179248 165.16758301 -21.57202148 163.93383789 C-21.50700439 162.63438232 -21.4419873 161.33492676 -21.375 159.99609375 C-21.3179531 158.63994 -21.26206815 157.28373693 -21.20727539 155.92749023 C-21.01831951 151.42815524 -20.79262567 146.9309852 -20.5625 142.43359375 C-20.52064575 141.60472656 -20.4787915 140.77585937 -20.43566895 139.921875 C-19.85407931 128.42332909 -19.22623323 116.92767557 -18.5625 105.43359375 C-24.68727158 106.61883004 -30.76453585 107.90367397 -36.8125 109.43359375 C-37.48023437 109.59859375 -38.14796875 109.76359375 -38.8359375 109.93359375 C-42.81318215 110.93180417 -46.68049872 112.11812562 -50.5625 113.43359375 C-50.58533554 114.21842133 -50.60817108 115.0032489 -50.63169861 115.81185913 C-50.84746245 123.19888868 -51.06769804 130.58576479 -51.29299068 137.97250938 C-51.40866421 141.77034143 -51.52259214 145.5682093 -51.63256836 149.36621094 C-51.73871411 153.02972987 -51.849396 156.69308591 -51.96325874 160.35637283 C-52.00595109 161.75579595 -52.04699333 163.15527039 -52.0863781 164.5547905 C-52.14171064 166.51110103 -52.20339181 168.46722892 -52.26538086 170.42333984 C-52.29869003 171.53808685 -52.33199921 172.65283386 -52.36631775 173.80136108 C-52.5625 176.43359375 -52.5625 176.43359375 -53.5625 178.43359375 C-56.29099111 179.34309079 -57.98675036 179.57806109 -60.80273438 179.62646484 C-61.65371704 179.64252777 -62.50469971 179.6585907 -63.38146973 179.67514038 C-67.25283907 179.71963447 -71.12404059 179.76061296 -74.99560547 179.78369141 C-77.04031726 179.80029391 -79.08497001 179.82763992 -81.12939453 179.86572266 C-84.07615268 179.92031863 -87.0215552 179.94233367 -89.96875 179.95703125 C-90.88442749 179.97970062 -91.80010498 180.00237 -92.74353027 180.02572632 C-95.11823167 180.01777318 -97.2465829 179.95722888 -99.5625 179.43359375 C-101.72460938 177.21337891 -101.72460938 177.21337891 -102.5625 174.43359375 C-102.25451863 172.76205662 -101.91647024 171.09599982 -101.5625 169.43359375 C-101.35789343 167.19703669 -101.18931702 164.95706437 -101.04483032 162.71582031 C-101.00117352 162.05354053 -100.95751672 161.39126076 -100.91253698 160.7089119 C-100.76750924 158.49753867 -100.6271985 156.28589137 -100.48681641 154.07421875 C-100.38348613 152.48553399 -100.27982481 150.89687074 -100.17585754 149.30822754 C-99.9526766 145.89093413 -99.73134896 142.47352743 -99.51131058 139.05603027 C-99.16285285 133.65190989 -98.80723028 128.24827611 -98.45004272 122.84472656 C-98.32778299 120.99383599 -98.20553155 119.14294487 -98.08328819 117.29205322 C-98.0220781 116.36530037 -97.96086801 115.43854752 -97.89780307 114.48371124 C-97.06771912 101.90636626 -96.24381122 89.32864095 -95.43359375 76.75 C-94.88672036 68.26067732 -94.33044183 59.77202724 -93.76345766 51.28402328 C-93.46390349 46.793495 -93.16928925 42.30276108 -92.88628006 37.81115723 C-92.62016155 33.58819944 -92.34177272 29.36623111 -92.05394554 25.1446991 C-91.95056118 23.59581926 -91.85172551 22.04662805 -91.7577877 20.49714661 C-91.62881903 18.38085895 -91.48351442 16.2662981 -91.33413696 14.15136719 C-91.25708338 12.96782654 -91.18002979 11.78428589 -91.10064125 10.56488037 C-90.51811475 7.17532898 -89.65913456 5.1485945 -87.5625 2.43359375 C-84.54296875 1.7265625 -84.54296875 1.7265625 -80.75 1.62109375 C-79.72374512 1.5888269 -79.72374512 1.5888269 -78.67675781 1.5559082 C-77.15441348 1.51474106 -75.631685 1.48642393 -74.10888672 1.46875 C-71.32214937 1.43027539 -68.53937879 1.33770607 -65.75390625 1.24609375 C-63.77350073 1.20152288 -61.7930282 1.15983149 -59.8125 1.12109375 C-58.86012451 1.09104248 -57.90774902 1.06099121 -56.92651367 1.0300293 C-55.57843628 1.01903198 -55.57843628 1.01903198 -54.203125 1.0078125 C-53.00478027 0.98593872 -53.00478027 0.98593872 -51.78222656 0.96362305 C-48.60675017 1.63594949 -47.45648811 2.82659072 -45.5625 5.43359375 C-45.26025391 8.25732422 -45.26025391 8.25732422 -45.5390625 11.55078125 C-45.67852295 13.40110962 -45.67852295 13.40110962 -45.82080078 15.28881836 C-45.94274744 16.62876959 -46.06498731 17.96869416 -46.1875 19.30859375 C-46.29758158 20.68285188 -46.40546271 22.0572879 -46.51123047 23.43188477 C-46.73395217 26.30031375 -46.96702335 29.16763575 -47.20703125 32.03466797 C-47.67276763 37.6829769 -48.03861165 43.33690809 -48.40429688 48.99243164 C-48.78035914 54.80680812 -49.17307914 60.62009669 -49.5625 66.43359375 C-38.3425 66.43359375 -27.1225 66.43359375 -15.5625 66.43359375 C-15.5625 61.15359375 -15.5625 55.87359375 -15.5625 50.43359375 C-15.42593064 46.51320339 -15.26882199 42.60989719 -15.046875 38.6953125 C-14.96122284 37.1751226 -14.96122284 37.1751226 -14.87384033 35.6242218 C-14.75223533 33.51957852 -14.62778524 31.41509769 -14.50048828 29.31079102 C-14.37381958 27.16153578 -14.25583233 25.01175343 -14.14599609 22.86157227 C-13.98549908 19.72146483 -13.800396 16.58369289 -13.609375 13.4453125 C-13.5643988 12.4829216 -13.51942261 11.5205307 -13.4730835 10.52897644 C-13.41332336 9.63987076 -13.35356323 8.75076508 -13.29199219 7.8347168 C-13.24757996 7.05468796 -13.20316772 6.27465912 -13.15740967 5.47099304 C-11.38722882 -0.59138147 -5.25331652 -0.01932536 0 0 Z M-70.5625 10.43359375 C-70.8925 11.09359375 -71.2225 11.75359375 -71.5625 12.43359375 C-70.5725 12.43359375 -69.5825 12.43359375 -68.5625 12.43359375 C-68.5625 11.77359375 -68.5625 11.11359375 -68.5625 10.43359375 C-69.2225 10.43359375 -69.8825 10.43359375 -70.5625 10.43359375 Z M-63.5625 11.43359375 C-63.5625 11.76359375 -63.5625 12.09359375 -63.5625 12.43359375 C-60.5925 12.43359375 -57.6225 12.43359375 -54.5625 12.43359375 C-54.5625 12.10359375 -54.5625 11.77359375 -54.5625 11.43359375 C-57.5325 11.43359375 -60.5025 11.43359375 -63.5625 11.43359375 Z M-80.5625 13.43359375 C-80.5625 14.09359375 -80.5625 14.75359375 -80.5625 15.43359375 C-79.9025 15.43359375 -79.2425 15.43359375 -78.5625 15.43359375 C-78.5625 14.77359375 -78.5625 14.11359375 -78.5625 13.43359375 C-79.2225 13.43359375 -79.8825 13.43359375 -80.5625 13.43359375 Z M-60.5625 37.43359375 C-59.9025 38.09359375 -59.2425 38.75359375 -58.5625 39.43359375 C-58.5625 38.77359375 -58.5625 38.11359375 -58.5625 37.43359375 C-59.2225 37.43359375 -59.8825 37.43359375 -60.5625 37.43359375 Z M-20.5625 77.43359375 C-20.8925 78.09359375 -21.2225 78.75359375 -21.5625 79.43359375 C-20.5725 79.10359375 -19.5825 78.77359375 -18.5625 78.43359375 C-19.2225 78.10359375 -19.8825 77.77359375 -20.5625 77.43359375 Z M-29.5625 82.43359375 C-27.5825 83.42359375 -27.5825 83.42359375 -25.5625 84.43359375 C-25.5625 83.77359375 -25.5625 83.11359375 -25.5625 82.43359375 C-26.8825 82.43359375 -28.2025 82.43359375 -29.5625 82.43359375 Z M-25.5625 84.43359375 C-24.9025 85.09359375 -24.2425 85.75359375 -23.5625 86.43359375 C-22.5725 86.10359375 -21.5825 85.77359375 -20.5625 85.43359375 C-22.2125 85.10359375 -23.8625 84.77359375 -25.5625 84.43359375 Z M-75.5625 110.43359375 C-75.5625 111.09359375 -75.5625 111.75359375 -75.5625 112.43359375 C-74.5725 112.43359375 -73.5825 112.43359375 -72.5625 112.43359375 C-72.5625 111.77359375 -72.5625 111.11359375 -72.5625 110.43359375 C-73.5525 110.43359375 -74.5425 110.43359375 -75.5625 110.43359375 Z " fill="#FEFEFD" transform="translate(103.5625,173.56640625)"/>
<path d="M0 0 C23.99385078 21.97277048 24.83403349 80.45035291 30.24902344 110.65869141 C31.29714708 116.5012014 32.36214324 122.34051362 33.43050385 128.17935181 C34.25646205 132.71063173 35.07004476 137.24406942 35.88020325 141.77819824 C36.26786539 143.93522467 36.66022091 146.09141322 37.05741882 148.2467041 C37.60679083 151.23389708 38.13854247 154.22371787 38.66601562 157.21484375 C38.8320932 158.09573166 38.99817078 158.97661957 39.16928101 159.88420105 C39.94215603 164.3811887 40.38876384 167.46617102 37.99609375 171.59375 C36.44040199 173.14944176 34.94684458 172.72859055 32.78344727 172.73901367 C31.88904434 172.74539352 30.99464142 172.75177338 30.07313538 172.75834656 C28.61380836 172.76001579 28.61380836 172.76001579 27.125 172.76171875 C26.13233627 172.76504715 25.13967255 172.76837555 24.1169281 172.77180481 C22.01277125 172.7768784 19.90860632 172.779213 17.80444336 172.77905273 C14.57587492 172.7812383 11.34764848 172.79938699 8.11914062 172.81835938 C6.07942826 172.82129332 4.03971426 172.82327811 2 172.82421875 C1.02913956 172.83140427 0.05827911 172.83858978 -0.94200134 172.84599304 C-1.83955643 172.84291641 -2.73711151 172.83983978 -3.66186523 172.83666992 C-4.45382797 172.83809494 -5.24579071 172.83951996 -6.06175232 172.84098816 C-8.00390625 172.59375 -8.00390625 172.59375 -10.00390625 170.59375 C-10.38829514 168.17273504 -10.6600319 165.83575673 -10.85546875 163.3984375 C-10.91922699 162.69099396 -10.98298523 161.98355042 -11.04867554 161.25466919 C-11.25052299 158.99334741 -11.43985112 156.73117368 -11.62890625 154.46875 C-11.76350026 152.93612545 -11.89890685 151.40357202 -12.03515625 149.87109375 C-12.36751003 146.11273979 -12.68863952 142.35357428 -13.00390625 138.59375 C-13.76944824 138.73997803 -14.53499023 138.88620605 -15.32373047 139.03686523 C-18.84128856 139.70613044 -22.3600716 140.36873082 -25.87890625 141.03125 C-27.08289063 141.26134766 -28.286875 141.49144531 -29.52734375 141.72851562 C-36.34198971 143.00626174 -43.08827083 144.06753864 -50.00390625 144.59375 C-50.38482422 146.511875 -50.38482422 146.511875 -50.7734375 148.46875 C-51.12075024 150.1771532 -51.46842587 151.88548266 -51.81640625 153.59375 C-51.98205078 154.43292969 -52.14769531 155.27210938 -52.31835938 156.13671875 C-53.42624966 161.52984504 -54.73460558 166.56356212 -57.00390625 171.59375 C-59.75435529 172.51056635 -61.24369907 172.70236832 -64.06054688 172.6472168 C-64.87148804 172.6335759 -65.6824292 172.619935 -66.51794434 172.60588074 C-67.38987427 172.58511978 -68.2618042 172.56435883 -69.16015625 172.54296875 C-70.05883423 172.5241011 -70.95751221 172.50523346 -71.88342285 172.48579407 C-73.78318545 172.44392878 -75.68288663 172.39919305 -77.58251953 172.35180664 C-80.49238993 172.28152814 -83.40227704 172.22722897 -86.3125 172.17382812 C-88.15757493 172.13118555 -90.0026283 172.08759752 -91.84765625 172.04296875 C-92.71958618 172.02828049 -93.59151611 172.01359222 -94.48986816 171.99845886 C-95.30080933 171.97536148 -96.11175049 171.9522641 -96.94726562 171.9284668 C-97.65991577 171.91212692 -98.37256592 171.89578705 -99.10681152 171.87895203 C-101.00390625 171.59375 -101.00390625 171.59375 -104.00390625 169.59375 C-104.45156276 164.11150576 -103.74362576 159.69186047 -102.203125 154.38671875 C-102.011241 153.71655731 -101.81935699 153.04639587 -101.62165833 152.35592651 C-100.98940499 150.16094864 -100.3411417 147.97111119 -99.69140625 145.78125 C-99.23787953 144.22790044 -98.78476206 142.67443133 -98.33203125 141.12084961 C-86.69234149 101.3761812 -73.06843807 62.77028493 -57.00390625 24.59375 C-56.72212524 23.92408203 -56.44034424 23.25441406 -56.15002441 22.56445312 C-54.49174729 18.63001616 -52.81729057 14.70285415 -51.12890625 10.78125 C-50.73058594 9.85143311 -50.33226562 8.92161621 -49.921875 7.96362305 C-49.55964844 7.13386963 -49.19742188 6.30411621 -48.82421875 5.44921875 C-48.51758301 4.74434326 -48.21094727 4.03946777 -47.89501953 3.31323242 C-47.00390625 1.59375 -47.00390625 1.59375 -45.00390625 -0.40625 C-31.59153251 -4.08497193 -12.38484031 -8.69111601 0 0 Z M-5.00390625 20.59375 C-5.33390625 21.25375 -5.66390625 21.91375 -6.00390625 22.59375 C-5.01390625 22.26375 -4.02390625 21.93375 -3.00390625 21.59375 C-3.66390625 21.26375 -4.32390625 20.93375 -5.00390625 20.59375 Z M-29.00390625 54.59375 C-29.33390625 55.58375 -29.66390625 56.57375 -30.00390625 57.59375 C-29.01390625 57.26375 -28.02390625 56.93375 -27.00390625 56.59375 C-27.00390625 55.93375 -27.00390625 55.27375 -27.00390625 54.59375 C-27.66390625 54.59375 -28.32390625 54.59375 -29.00390625 54.59375 Z M-26.00390625 62.59375 C-25.34390625 63.25375 -24.68390625 63.91375 -24.00390625 64.59375 C-24.00390625 63.93375 -24.00390625 63.27375 -24.00390625 62.59375 C-24.66390625 62.59375 -25.32390625 62.59375 -26.00390625 62.59375 Z M-27.00390625 65.59375 C-28.35074508 69.96470768 -29.67897529 74.3411065 -31.00390625 78.71875 C-31.38546875 79.95625 -31.76703125 81.19375 -32.16015625 82.46875 C-32.52109375 83.66757812 -32.88203125 84.86640625 -33.25390625 86.1015625 C-33.5890625 87.20129395 -33.92421875 88.30102539 -34.26953125 89.43408203 C-35.00624313 92.60380448 -35.14055554 95.35259967 -35.00390625 98.59375 C-31.21123433 99.5297842 -28.0671606 99.57651252 -24.19140625 99.15625 C-22.72767578 99.00349609 -22.72767578 99.00349609 -21.234375 98.84765625 C-20.49832031 98.76386719 -19.76226562 98.68007813 -19.00390625 98.59375 C-19.39429901 90.97436033 -20.18647295 83.44872507 -21.31640625 75.90625 C-21.42186768 75.11621582 -21.5273291 74.32618164 -21.63598633 73.51220703 C-21.99142634 71.00688057 -21.99142634 71.00688057 -23.00390625 67.59375 C-24.99356186 66.33409676 -24.99356186 66.33409676 -27.00390625 65.59375 Z M-35.00390625 67.59375 C-35.66390625 69.90375 -36.32390625 72.21375 -37.00390625 74.59375 C-36.34390625 74.26375 -35.68390625 73.93375 -35.00390625 73.59375 C-34.34618197 70.56440509 -34.34618197 70.56440509 -34.00390625 67.59375 C-34.33390625 67.59375 -34.66390625 67.59375 -35.00390625 67.59375 Z M-38.00390625 74.59375 C-38.25785156 75.24601562 -38.51179688 75.89828125 -38.7734375 76.5703125 C-40.96363567 82.13193932 -43.21598196 87.5542787 -46.25390625 92.71875 C-47.19714555 95.07684824 -46.69701944 96.2074603 -46.00390625 98.59375 C-42.21473353 91.57446284 -38.89986987 84.37458771 -37.00390625 76.59375 C-37.33390625 75.93375 -37.66390625 75.27375 -38.00390625 74.59375 Z M-6.00390625 85.59375 C-6.00390625 86.25375 -6.00390625 86.91375 -6.00390625 87.59375 C-5.34390625 87.26375 -4.68390625 86.93375 -4.00390625 86.59375 C-4.66390625 86.26375 -5.32390625 85.93375 -6.00390625 85.59375 Z M-54.00390625 91.59375 C-53.00390625 93.59375 -53.00390625 93.59375 -53.00390625 93.59375 Z M5.99609375 90.59375 C5.00609375 91.25375 4.01609375 91.91375 2.99609375 92.59375 C3.32609375 93.25375 3.65609375 93.91375 3.99609375 94.59375 C4.98609375 93.93375 5.97609375 93.27375 6.99609375 92.59375 C6.66609375 91.93375 6.33609375 91.27375 5.99609375 90.59375 Z M3.99609375 94.59375 C3.99609375 95.25375 3.99609375 95.91375 3.99609375 96.59375 C4.98609375 96.26375 5.97609375 95.93375 6.99609375 95.59375 C6.00609375 95.26375 5.01609375 94.93375 3.99609375 94.59375 Z M-48.00390625 98.59375 C-48.66390625 100.57375 -49.32390625 102.55375 -50.00390625 104.59375 C-49.34390625 104.59375 -48.68390625 104.59375 -48.00390625 104.59375 C-47.67390625 102.61375 -47.34390625 100.63375 -47.00390625 98.59375 C-47.33390625 98.59375 -47.66390625 98.59375 -48.00390625 98.59375 Z M-0.00390625 104.59375 C-0.00390625 105.58375 -0.00390625 106.57375 -0.00390625 107.59375 C0.65609375 107.26375 1.31609375 106.93375 1.99609375 106.59375 C1.33609375 105.93375 0.67609375 105.27375 -0.00390625 104.59375 Z M-5.00390625 115.59375 C-5.33390625 116.25375 -5.66390625 116.91375 -6.00390625 117.59375 C-5.01390625 117.26375 -4.02390625 116.93375 -3.00390625 116.59375 C-3.66390625 116.26375 -4.32390625 115.93375 -5.00390625 115.59375 Z M6.99609375 124.59375 C6.99609375 125.25375 6.99609375 125.91375 6.99609375 126.59375 C7.98609375 126.26375 8.97609375 125.93375 9.99609375 125.59375 C9.00609375 125.26375 8.01609375 124.93375 6.99609375 124.59375 Z M-59.00390625 127.59375 C-59.33390625 128.25375 -59.66390625 128.91375 -60.00390625 129.59375 C-59.34390625 129.59375 -58.68390625 129.59375 -58.00390625 129.59375 C-57.67390625 130.25375 -57.34390625 130.91375 -57.00390625 131.59375 C-56.01390625 131.26375 -55.02390625 130.93375 -54.00390625 130.59375 C-55.37876157 129.05208358 -55.37876157 129.05208358 -57.00390625 127.59375 C-57.66390625 127.59375 -58.32390625 127.59375 -59.00390625 127.59375 Z M8.99609375 130.59375 C9.65609375 132.57375 10.31609375 134.55375 10.99609375 136.59375 C9.67609375 136.92375 8.35609375 137.25375 6.99609375 137.59375 C6.99609375 139.90375 6.99609375 142.21375 6.99609375 144.59375 C8.31609375 144.92375 9.63609375 145.25375 10.99609375 145.59375 C10.99609375 146.58375 10.99609375 147.57375 10.99609375 148.59375 C12.64609375 148.26375 14.29609375 147.93375 15.99609375 147.59375 C15.95484375 148.50125 15.91359375 149.40875 15.87109375 150.34375 C15.99140931 153.4719546 16.38756455 154.97989006 17.99609375 157.59375 C18.65609375 157.59375 19.31609375 157.59375 19.99609375 157.59375 C21.02846276 152.86076225 21.02846276 152.86076225 20.05859375 148.25 C18.83295422 145.18590118 18.58771655 142.56669573 18.37109375 139.28125 C18.29632813 138.21261719 18.2215625 137.14398438 18.14453125 136.04296875 C18.09554687 135.23472656 18.0465625 134.42648437 17.99609375 133.59375 C16.34609375 134.25375 14.69609375 134.91375 12.99609375 135.59375 C12.99609375 133.94375 12.99609375 132.29375 12.99609375 130.59375 C13.98609375 130.26375 14.97609375 129.93375 15.99609375 129.59375 C12.51027519 128.3917436 12.31617031 128.38036563 8.99609375 130.59375 Z M-70.00390625 142.59375 C-70.33390625 143.25375 -70.66390625 143.91375 -71.00390625 144.59375 C-70.34390625 144.59375 -69.68390625 144.59375 -69.00390625 144.59375 C-69.33390625 143.93375 -69.66390625 143.27375 -70.00390625 142.59375 Z M20.99609375 157.59375 C20.66609375 158.91375 20.33609375 160.23375 19.99609375 161.59375 C20.98609375 162.08875 20.98609375 162.08875 21.99609375 162.59375 C21.99609375 160.94375 21.99609375 159.29375 21.99609375 157.59375 C21.66609375 157.59375 21.33609375 157.59375 20.99609375 157.59375 Z " fill="#FEFEFD" transform="translate(249.00390625,180.40625)"/>
<path d="M0 0 C0.79849365 -0.01297119 1.5969873 -0.02594238 2.41967773 -0.03930664 C6.27641185 -0.04559958 8.08919253 -0.00303832 11.375 2.1875 C13.16291373 7.9759153 12.10969755 14.22875739 11.6328125 20.171875 C11.54498505 21.34147766 11.45715759 22.51108032 11.3666687 23.71612549 C11.08453327 27.45713363 10.79267751 31.19730319 10.5 34.9375 C10.12480109 39.82791314 9.75313865 44.71859061 9.3828125 49.609375 C9.2926738 50.79923004 9.2025351 51.98908508 9.10966492 53.21499634 C7.90610128 69.24637189 7.19218853 85.24160162 6.8125 101.3125 C6.76913162 103.06120417 6.72551285 104.80990215 6.68164062 106.55859375 C6.57655797 110.76816383 6.47480303 114.97780158 6.375 119.1875 C5.385 119.1875 4.395 119.1875 3.375 119.1875 C3.705 120.5075 4.035 121.8275 4.375 123.1875 C4.375 122.1975 4.375 121.2075 4.375 120.1875 C5.035 120.1875 5.695 120.1875 6.375 120.1875 C6.375 131.01997919 6.30323806 141.84456296 6.11254883 152.67553711 C6.07915511 154.72688862 6.05116916 156.77833522 6.02856445 158.82983398 C5.99514681 161.78409543 5.94286169 164.73750035 5.88671875 167.69140625 C5.87713387 169.07266441 5.87713387 169.07266441 5.86735535 170.48182678 C5.84756119 171.33288498 5.82776703 172.18394318 5.80737305 173.06079102 C5.79626999 173.81119156 5.78516693 174.5615921 5.77372742 175.33473206 C5.375 177.1875 5.375 177.1875 2.375 179.1875 C0.43994141 179.44819641 0.43994141 179.44819641 -1.7734375 179.4621582 C-2.60439941 179.47169022 -3.43536133 179.48122223 -4.29150391 179.49104309 C-5.18530762 179.49013168 -6.07911133 179.48922028 -7 179.48828125 C-7.92087402 179.49256638 -8.84174805 179.4968515 -9.79052734 179.50126648 C-11.73729632 179.50700889 -13.68408676 179.5075107 -15.63085938 179.50317383 C-18.61365207 179.50001203 -21.59545483 179.52348035 -24.578125 179.54882812 C-26.46874875 179.55110089 -28.35937516 179.55180472 -30.25 179.55078125 C-31.14380371 179.559991 -32.03760742 179.56920074 -32.95849609 179.57868958 C-33.78945801 179.57246078 -34.62041992 179.56623199 -35.4765625 179.55981445 C-36.20697754 179.56044388 -36.93739258 179.5610733 -37.68994141 179.5617218 C-40.21007346 179.07435239 -41.09680961 178.22231058 -42.625 176.1875 C-42.86267326 173.67770855 -42.91797934 171.42816457 -42.83203125 168.92578125 C-42.81880325 168.17992264 -42.80557526 167.43406403 -42.79194641 166.66560364 C-42.76229169 165.03315531 -42.72640231 163.40081139 -42.68511963 161.76861572 C-42.62438668 159.16116824 -42.59185754 156.55480761 -42.56787109 153.94677734 C-42.27944535 123.78061962 -40.98030667 93.72595383 -39.03662109 63.62451172 C-38.6853948 58.17536809 -38.3535239 52.72524005 -38.02801514 47.27450562 C-37.7734072 43.02558205 -37.51209268 38.77709002 -37.2489624 34.52868652 C-37.12623486 32.53523768 -37.005455 30.54166782 -36.88677979 28.54797363 C-36.72192375 25.79841678 -36.54773941 23.04960256 -36.37109375 20.30078125 C-36.32531693 19.50628067 -36.2795401 18.71178009 -36.2323761 17.89320374 C-35.88032612 12.61618694 -35.36964269 7.20936574 -33.625 2.1875 C-31.38614976 1.06807488 -29.99180386 0.99295761 -27.50390625 0.87109375 C-26.65940918 0.82895752 -25.81491211 0.78682129 -24.94482422 0.7434082 C-24.03490723 0.7043335 -23.12499023 0.66525879 -22.1875 0.625 C-21.25695801 0.5839917 -20.32641602 0.5429834 -19.36767578 0.50073242 C-12.9130138 0.23710975 -6.45984904 0.05606305 0 0 Z M-30.625 7.1875 C-30.955 15.1075 -31.285 23.0275 -31.625 31.1875 C-30.965 31.5175 -30.305 31.8475 -29.625 32.1875 C-29.955 30.2075 -30.285 28.2275 -30.625 26.1875 C-29.635 26.1875 -28.645 26.1875 -27.625 26.1875 C-27.625 25.1975 -27.625 24.2075 -27.625 23.1875 C-26.965 23.1875 -26.305 23.1875 -25.625 23.1875 C-25.356875 22.28 -25.08875 21.3725 -24.8125 20.4375 C-23.71824505 17.44269697 -22.51704417 15.68155822 -20.625 13.1875 C-20.625 12.1975 -20.625 11.2075 -20.625 10.1875 C-20.295 9.1975 -19.965 8.2075 -19.625 7.1875 C-20.6975 7.373125 -21.77 7.55875 -22.875 7.75 C-26.625 8.1875 -26.625 8.1875 -30.625 7.1875 Z M-15.625 8.1875 C-14.965 8.8475 -14.305 9.5075 -13.625 10.1875 C-13.625 9.5275 -13.625 8.8675 -13.625 8.1875 C-14.285 8.1875 -14.945 8.1875 -15.625 8.1875 Z M-30.625 35.1875 C-31.95130565 39.33220514 -32.60884711 44.21980578 -30.625 48.1875 C-30.58477609 50.5204866 -30.58179753 52.85456666 -30.625 55.1875 C-29.965 54.8575 -29.305 54.5275 -28.625 54.1875 C-28.59782308 52.12507383 -28.5785242 50.06254297 -28.5625 48 C-28.55089844 46.85144531 -28.53929687 45.70289063 -28.52734375 44.51953125 C-28.61307168 41.59449414 -28.94650977 39.02433709 -29.625 36.1875 C-28.635 35.8575 -27.645 35.5275 -26.625 35.1875 C-27.945 35.1875 -29.265 35.1875 -30.625 35.1875 Z M-31.625 55.1875 C-31.955 58.4875 -32.285 61.7875 -32.625 65.1875 C-31.635 65.6825 -31.635 65.6825 -30.625 66.1875 C-30.40325067 64.73114629 -30.19801302 63.27227044 -30 61.8125 C-29.82597656 60.59433594 -29.82597656 60.59433594 -29.6484375 59.3515625 C-29.64070313 58.63742188 -29.63296875 57.92328125 -29.625 57.1875 C-30.285 56.5275 -30.945 55.8675 -31.625 55.1875 Z M-31.625 71.1875 C-31.625 73.1675 -31.625 75.1475 -31.625 77.1875 C-31.295 77.1875 -30.965 77.1875 -30.625 77.1875 C-30.625 75.2075 -30.625 73.2275 -30.625 71.1875 C-30.955 71.1875 -31.285 71.1875 -31.625 71.1875 Z M-32.625 77.1875 C-31.625 81.1875 -31.625 81.1875 -31.625 81.1875 Z M-33.625 84.1875 C-32.635 85.6725 -32.635 85.6725 -31.625 87.1875 C-31.625 86.1975 -31.625 85.2075 -31.625 84.1875 C-32.285 84.1875 -32.945 84.1875 -33.625 84.1875 Z M-33.625 93.1875 C-33.955 94.5075 -34.285 95.8275 -34.625 97.1875 C-33.635 97.6825 -33.635 97.6825 -32.625 98.1875 C-32.625 96.5375 -32.625 94.8875 -32.625 93.1875 C-32.955 93.1875 -33.285 93.1875 -33.625 93.1875 Z M-34.625 99.1875 C-34.955 100.1775 -35.285 101.1675 -35.625 102.1875 C-34.635 103.6725 -34.635 103.6725 -33.625 105.1875 C-33.625 103.2075 -33.625 101.2275 -33.625 99.1875 C-33.955 99.1875 -34.285 99.1875 -34.625 99.1875 Z M-35.625 108.1875 C-34.625 110.1875 -34.625 110.1875 -34.625 110.1875 Z M-5.625 109.1875 C-5.625 109.8475 -5.625 110.5075 -5.625 111.1875 C-4.965 110.8575 -4.305 110.5275 -3.625 110.1875 C-4.285 109.8575 -4.945 109.5275 -5.625 109.1875 Z M-13.625 124.1875 C-12.635 125.6725 -12.635 125.6725 -11.625 127.1875 C-10.965 127.1875 -10.305 127.1875 -9.625 127.1875 C-9.625 126.5275 -9.625 125.8675 -9.625 125.1875 C-10.945 124.8575 -12.265 124.5275 -13.625 124.1875 Z M2.375 132.1875 C2.705 133.5075 3.035 134.8275 3.375 136.1875 C3.705 134.8675 4.035 133.5475 4.375 132.1875 C3.715 132.1875 3.055 132.1875 2.375 132.1875 Z M-6.625 155.1875 C-5.625 157.1875 -5.625 157.1875 -5.625 157.1875 Z M0.375 160.1875 C0.045 160.8475 -0.285 161.5075 -0.625 162.1875 C0.365 161.8575 1.355 161.5275 2.375 161.1875 C1.715 160.8575 1.055 160.5275 0.375 160.1875 Z M-4.625 164.1875 C-3.625 166.1875 -3.625 166.1875 -3.625 166.1875 Z " fill="#FDFDFD" transform="translate(478.625,173.8125)"/>
<path d="M0 0 C27.06 0 54.12 0 82 0 C82 27.06 82 54.12 82 82 C54.61 82 27.22 82 -1 82 C-0.505 41.41 -0.505 41.41 0 0 Z " fill="#F4C26B" transform="translate(209,50)"/>
<path d="M0 0 C27.06 0 54.12 0 82 0 C82 27.06 82 54.12 82 82 C54.94 82 27.88 82 0 82 C0 54.94 0 27.88 0 0 Z " fill="#F4C26A" transform="translate(209,368)"/>
<path d="M0 0 C8.46194394 7.07164483 14.12225761 16.37472404 15.8125 27.37890625 C16.70916639 39.91355515 13.99301806 50.73412748 5.75 60.375 C-2.92329781 69.32113334 -12.48814447 74.23652702 -24.9765625 75.05859375 C-37.30169377 74.81973462 -47.21763305 70.57229906 -56.25 62.375 C-63.47965468 54.7209324 -67.93326177 44.46514822 -68.02734375 33.94140625 C-67.39116081 20.09219312 -62.66372865 10.18744279 -52.6875 0.75 C-48.434523 -2.88319643 -44.2944971 -5.23208226 -39 -7 C-38.30390625 -7.23589844 -37.6078125 -7.47179687 -36.890625 -7.71484375 C-24.50860247 -11.17186829 -9.99209163 -7.99367331 0 0 Z " fill="#EA635D" transform="translate(117,376)"/>
<path d="M0 0 C8.21685042 7.54580764 13.66715412 17.82170129 14.46875 29.02734375 C14.70488552 40.70129333 11.86353525 50.46115261 4.21875 59.40234375 C-5.10559822 69.02000756 -14.86009904 73.35545378 -28.1953125 74.0859375 C-39.76035954 73.88280436 -49.33958613 69.09257163 -57.78125 61.40234375 C-65.43598889 53.2982376 -68.94940966 43.12579593 -69.84375 32.21484375 C-69.3887715 18.75283281 -63.4450405 8.01807012 -53.80078125 -1.06640625 C-38.39964487 -14.00230049 -15.26342063 -11.89510404 0 0 Z " fill="#EA635D" transform="translate(118.53125,58.97265625)"/>
<path d="M0 0 C8.8574949 8.74271095 13.27433739 19.31299751 13.8359375 31.625 C13.73770388 42.97799999 9.41478853 53.31158838 1.68359375 61.66015625 C-6.97742468 69.66723873 -17.46163392 73.70569148 -29.1953125 73.8125 C-42.13882784 73.16780383 -51.50467447 67.83296031 -60.37890625 58.66015625 C-69.13364964 48.2131745 -70.50032686 37.28427104 -69.46923828 24.07910156 C-68.10276202 12.79666667 -61.02880389 4.81739559 -52.69921875 -2.36328125 C-36.96280068 -13.98175814 -14.81810045 -12.0454829 0 0 Z " fill="#EA625D" transform="translate(430.19140625,59.21484375)"/>
<path d="M0 0 C9.65220557 7.83437352 15.26855681 17.69877797 16.8125 30.06640625 C17.57284797 41.9626838 14.58795316 52.23528889 6.75 61.375 C-2.04693684 70.44866167 -11.54926026 75.18387131 -24.18359375 75.9921875 C-35.80301683 76.02441891 -46.33773476 71.76767306 -54.875 63.875 C-64.33430425 53.74494509 -66.49396142 42.88705572 -66.27734375 29.56640625 C-65.88973261 20.17310347 -62.1186555 12.96107908 -56 6 C-55.48695313 5.38253906 -54.97390625 4.76507813 -54.4453125 4.12890625 C-40.7766575 -11.07665493 -16.03927084 -11.59360338 0 0 Z " fill="#EA635D" transform="translate(434,375)"/>
<path d="M0 0 C2.17273265 3.25909898 2.2914889 4.5696724 2.5 8.375 C2.66934444 11.44860157 2.87091624 13.70034126 4.09375 16.5390625 C5 19 5 19 4.46875 21.48828125 C3.84142674 24.84968838 4.83297083 26.25689818 6.5 29.1875 C7.96875 31.79296875 7.96875 31.79296875 9 34 C8.67 34.66 8.34 35.32 8 36 C7.03409909 34.46306333 6.07764001 32.92019122 5.125 31.375 C4.59132813 30.51648438 4.05765625 29.65796875 3.5078125 28.7734375 C-0.01002101 22.3028111 -0.25864759 16.83168929 -0.125 9.625 C-0.11597656 8.69816406 -0.10695313 7.77132812 -0.09765625 6.81640625 C-0.07422937 4.54399923 -0.04142748 2.2721382 0 0 Z " fill="#D66A69" transform="translate(361,81)"/>
<path d="M0 0 C1.32 0.33 2.64 0.66 4 1 C-2.13488134 7.26118772 -9.44018637 12.14005804 -18.32421875 13.3046875 C-20.25 13.3125 -20.25 13.3125 -23 13 C-23 12.67 -23 12.34 -23 12 C-21.02 12 -19.04 12 -17 12 C-17 11.34 -17 10.68 -17 10 C-15.576875 9.87625 -15.576875 9.87625 -14.125 9.75 C-13.09375 9.5025 -12.0625 9.255 -11 9 C-10.690625 8.34 -10.38125 7.68 -10.0625 7 C-9.711875 6.34 -9.36125 5.68 -9 5 C-5.5 4.5 -5.5 4.5 -2 4 C-0.48705712 2.06402968 -0.48705712 2.06402968 0 0 Z " fill="#D96A63" transform="translate(428,119)"/>
<path d="M0 0 C-0.33 0.99 -0.66 1.98 -1 3 C-2.65 3.33 -4.3 3.66 -6 4 C-6.33 4.99 -6.66 5.98 -7 7 C-7.804375 7.4125 -8.60875 7.825 -9.4375 8.25 C-12.93214677 10.63658804 -13.16270383 12.96575483 -14 17 C-15.98 17.33 -17.96 17.66 -20 18 C-17.59033281 10.77099842 -11.55291031 5.25538842 -5.0625 1.4375 C-2 0 -2 0 0 0 Z " fill="#D76A69" transform="translate(75,371)"/>
<path d="M0 0 C5.6291609 4.82499505 8.67206791 11.01620372 11 18 C11.12781786 20.67394964 11.04391871 23.32095857 11 26 C10.67 26 10.34 26 10 26 C9.87625 24.906875 9.7525 23.81375 9.625 22.6875 C9.24535199 18.92618198 9.24535199 18.92618198 7 16 C6.01 16 5.02 16 4 16 C4.33 13.03 4.66 10.06 5 7 C4.34 7 3.68 7 3 7 C0 2.61538462 0 2.61538462 0 0 Z " fill="#D46560" transform="translate(439,381)"/>
<path d="M0 0 C0 0.99 0 1.98 0 3 C-0.9590625 3.1546875 -0.9590625 3.1546875 -1.9375 3.3125 C-2.618125 3.539375 -3.29875 3.76625 -4 4 C-4.33 4.99 -4.66 5.98 -5 7 C-5.721875 7.391875 -6.44375 7.78375 -7.1875 8.1875 C-11.12442606 10.72463013 -13.36341347 14.18555694 -16 18 C-16.33 17.34 -16.66 16.68 -17 16 C-5.65454545 0 -5.65454545 0 0 0 Z " fill="#D26A67" transform="translate(382,55)"/>
<path d="M0 0 C6.53658978 0.62253236 10.70611141 3.28256374 14.875 8.25 C15.57625 9.1575 16.2775 10.065 17 11 C14.48728801 9.88323912 12.6807446 8.72986081 10.5625 6.9375 C7.91128479 4.93292265 6.25705571 4.37223494 3 4 C3 3.34 3 2.68 3 2 C2.01 1.67 1.02 1.34 0 1 C0 0.67 0 0.34 0 0 Z " fill="#D96D68" transform="translate(105,371)"/>
<path d="M0 0 C0.66 0 1.32 0 2 0 C2.54903492 6.31390154 0.94330282 11.39268586 -2 17 C-2.66 17.33 -3.32 17.66 -4 18 C-3.58315135 15.49890807 -3.19940269 13.37388004 -2 11.125 C-0.88513069 8.75590271 -0.60432647 6.84903331 -0.375 4.25 C-0.30023438 3.45078125 -0.22546875 2.6515625 -0.1484375 1.828125 C-0.09945313 1.22484375 -0.05046875 0.6215625 0 0 Z " fill="#CB6865" transform="translate(441,94)"/>
<path d="M0 0 C0.5775 0.639375 1.155 1.27875 1.75 1.9375 C3.98062401 3.98223868 5.07436391 4.58205199 8 5 C8 7.66666667 8 10.33333333 8 13 C4.15383526 8.91193811 1.36410449 5.59282842 0 0 Z " fill="#D86860" transform="translate(371,425)"/>
<path d="M0 0 C1.32 0.33 2.64 0.66 4 1 C3.97679687 1.60328125 3.95359375 2.2065625 3.9296875 2.828125 C3.91164062 3.62734375 3.89359375 4.4265625 3.875 5.25 C3.84019531 6.43335938 3.84019531 6.43335938 3.8046875 7.640625 C3.85398269 10.04101727 3.85398269 10.04101727 5.0703125 12.109375 C6 14 6 14 5 17 C2.14711836 11.26769829 0.46555704 6.40140935 0 0 Z " fill="#D16862" transform="translate(50,414)"/>
<path d="M0 0 C0.99 0 1.98 0 3 0 C1.58036591 5.67853635 -1.39363961 9.53174216 -5 14 C-5 11 -5 11 -3 8 C-2.61500109 6.34450469 -2.27206865 4.6777567 -2 3 C-1.01 3 -0.02 3 1 3 C0.67 2.01 0.34 1.02 0 0 Z " fill="#D36C67" transform="translate(127,105)"/>
<path d="M0 0 C3.65786455 3.36128094 6.1784694 6.34497737 8 11 C7.67 11.99 7.34 12.98 7 14 C3 7.25 3 7.25 3 5 C2.01 5 1.02 5 0 5 C0 3.35 0 1.7 0 0 Z " fill="#D36765" transform="translate(122,64)"/>
<path d="M0 0 C0.66 0.33 1.32 0.66 2 1 C-5.59047487 8.98421708 -5.59047487 8.98421708 -10 11 C-10.66 10.67 -11.32 10.34 -12 10 C-9.63707344 7.47411298 -8.33537489 6.11179163 -5 5 C-4.67 4.01 -4.34 3.02 -4 2 C-2.0625 0.75 -2.0625 0.75 0 0 Z " fill="#CE6764" transform="translate(121,435)"/>
<path d="M0 0 C1 3 1 3 -0.21484375 5.48046875 C-0.78332031 6.37378906 -1.35179688 7.26710938 -1.9375 8.1875 C-2.50339844 9.08855469 -3.06929688 9.98960937 -3.65234375 10.91796875 C-4.09707031 11.60503906 -4.54179688 12.29210937 -5 13 C-6.04449911 9.86650268 -5.93423645 9.01031744 -5 6 C-4.01 6 -3.02 6 -2 6 C-2 4.35 -2 2.7 -2 1 C-1.34 0.67 -0.68 0.34 0 0 Z " fill="#CD6664" transform="translate(129,422)"/>
<path d="M0 0 C0.6875 1.8125 0.6875 1.8125 1 4 C-0.3125 5.75 -0.3125 5.75 -2 7 C-2.66 7 -3.32 7 -4 7 C-4 7.99 -4 8.98 -4 10 C-4.99 10.33 -5.98 10.66 -7 11 C-5.5140084 6.40693504 -3.14985318 3.56430755 0 0 Z " fill="#D66A64" transform="translate(61,62)"/>
<path d="M0 0 C1.95979369 2.93969054 2.48320069 4.55022586 3.125 7.9375 C3.29257813 8.79214844 3.46015625 9.64679688 3.6328125 10.52734375 C4 13 4 13 4 17 C3.01 17 2.02 17 1 17 C1.01160156 16.28972656 1.02320313 15.57945312 1.03515625 14.84765625 C1.04417969 13.92855469 1.05320313 13.00945312 1.0625 12.0625 C1.07990234 10.68771484 1.07990234 10.68771484 1.09765625 9.28515625 C1.25949049 7.03406673 1.25949049 7.03406673 0 6 C-0.04080783 4.00041636 -0.04254356 1.99954746 0 0 Z " fill="#CD625B" transform="translate(129,393)"/>
<path d="M0 0 C1.65 0 3.3 0 5 0 C1.26469402 3.28254162 -2.2896745 5.37279665 -7 7 C-9.4375 6.6875 -9.4375 6.6875 -11 6 C-9.02 5.67 -7.04 5.34 -5 5 C-5 4.34 -5 3.68 -5 3 C-4.360625 2.87625 -3.72125 2.7525 -3.0625 2.625 C-2.381875 2.41875 -1.70125 2.2125 -1 2 C-0.67 1.34 -0.34 0.68 0 0 Z " fill="#D47069" transform="translate(111,124)"/>
<path d="M0 0 C1.32 0 2.64 0 4 0 C4 6.27 4 12.54 4 19 C3.67 19 3.34 19 3 19 C3 13.72 3 8.44 3 3 C2.01 2.67 1.02 2.34 0 2 C0 1.34 0 0.68 0 0 Z " fill="#F3F3F3" transform="translate(340,303)"/>
<path d="M0 0 C0.625 1.875 0.625 1.875 1 4 C0.34 4.66 -0.32 5.32 -1 6 C-2.32 6 -3.64 6 -5 6 C-4.1875 3.5625 -4.1875 3.5625 -3 1 C-2.01 0.67 -1.02 0.34 0 0 Z " fill="#DF6762" transform="translate(60,383)"/>
<path d="M0 0 C0.99 0.33 1.98 0.66 3 1 C4.0625 3.1875 4.0625 3.1875 5 6 C5.37125 7.093125 5.7425 8.18625 6.125 9.3125 C6.41375 10.199375 6.7025 11.08625 7 12 C3.66488612 9.0098979 1.78478881 6.10501426 0 2 C0 1.34 0 0.68 0 0 Z " fill="#D76F6C" transform="translate(363,105)"/>
<path d="M0 0 C0 0.66 0 1.32 0 2 C1.32 2.66 2.64 3.32 4 4 C-2.4 4.36923077 -2.4 4.36923077 -5.4375 2.5 C-5.953125 2.005 -6.46875 1.51 -7 1 C-4 0 -4 0 0 0 Z " fill="#D7655F" transform="translate(78,444)"/>
<path d="M0 0 C3.375 0.3125 3.375 0.3125 7 1 C7.66 1.99 8.32 2.98 9 4 C8.67 4.66 8.34 5.32 8 6 C4.08597051 4.73058503 2.20927127 3.48832306 0 0 Z " fill="#DA6C69" transform="translate(374,121)"/>
<path d="M0 0 C-0.33 0.99 -0.66 1.98 -1 3 C-1.99 3 -2.98 3 -4 3 C-4.66 4.32 -5.32 5.64 -6 7 C-6.99 6.67 -7.98 6.34 -9 6 C-7.8803014 4.99406757 -6.7540588 3.9954151 -5.625 3 C-4.68527344 2.1646875 -4.68527344 2.1646875 -3.7265625 1.3125 C-2 0 -2 0 0 0 Z " fill="#D36C67" transform="translate(389,373)"/>
<path d="M0 0 C2.31 0.33 4.62 0.66 7 1 C7.66 2.65 8.32 4.3 9 6 C5.06326356 4.68775452 2.77280706 3.08089673 0 0 Z " fill="#DA6968" transform="translate(64,122)"/>
<path d="M0 0 C3.48331435 3.01887244 4.79157144 5.56909529 6 10 C5.34 10 4.68 10 4 10 C3.32845067 8.71086513 2.66291141 7.41859796 2 6.125 C1.62875 5.40570313 1.2575 4.68640625 0.875 3.9453125 C0 2 0 2 0 0 Z " fill="#CF6866" transform="translate(123,383)"/>
<path d="M0 0 C1.32 0.33 2.64 0.66 4 1 C0.04 4.465 0.04 4.465 -4 8 C-4 7.01 -4 6.02 -4 5 C-3.01 4.34 -2.02 3.68 -1 3 C-0.67 2.01 -0.34 1.02 0 0 Z " fill="#CE6E6B" transform="translate(428,119)"/>
<path d="M0 0 C3.91402949 1.26941497 5.79072873 2.51167694 8 6 C2.33846154 4.52307692 2.33846154 4.52307692 0.625 1.875 C0.41875 1.25625 0.2125 0.6375 0 0 Z " fill="#D26463" transform="translate(422,55)"/>
<path d="M0 0 C1.98 0 3.96 0 6 0 C3.82575883 2.50037734 2.26954202 3.43628586 -1 4 C-0.67 2.68 -0.34 1.36 0 0 Z " fill="#CF6563" transform="translate(426,443)"/>
<path d="M0 0 C-0.60183749 2.02045442 -1.27306096 4.02111039 -2 6 C-2.99 6.495 -2.99 6.495 -4 7 C-4 5.02 -4 3.04 -4 1 C-2 0 -2 0 0 0 Z " fill="#D16866" transform="translate(447,425)"/>
<path d="" fill="#FFFFFF" transform="translate(0,0)"/>
<path d="" fill="#FFFFFF" transform="translate(0,0)"/>
</svg>
